<svg width="23" height="23" viewBox="0 0 23 23" fill="none" xmlns="http://www.w3.org/2000/svg">
<path d="M7.38221 13.1352C7.22976 13.3433 7.04787 13.56 6.83582 13.783C6.08751 14.5698 5.16976 15.2171 4.57744 15.5556L4.4778 15.6125C4.07968 15.84 3.83398 16.2634 3.83398 16.7219V19.803C3.83398 20.5086 4.40606 21.0807 5.11176 21.0807H17.5701C18.2758 21.0807 18.8479 20.5086 18.8479 19.803V16.7219C18.8479 16.2634 18.6022 15.84 18.2041 15.6125L18.1044 15.5556C17.5121 15.2171 16.5943 14.5698 15.846 13.783C15.634 13.56 15.4521 13.3433 15.2996 13.1352C15.8604 13.0001 16.2771 12.4952 16.2771 11.8929V9.81292C16.2771 9.39774 16.0754 9.00844 15.7362 8.76902L15.1935 8.38594C15.5066 7.77751 15.6839 7.08707 15.6839 6.35586C15.6839 3.90272 13.6952 1.91406 11.2421 1.91406C8.78892 1.91406 6.80025 3.90272 6.80025 6.35586C6.80025 7.1282 6.99789 7.85485 7.34452 8.48746L6.94566 8.76902C6.60647 9.00844 6.40475 9.39774 6.40475 9.81292V11.8929C6.40475 12.4952 6.82142 13.0001 7.38221 13.1352Z" fill="black"/>
<path d="M14.4056 6.35933C14.4056 7.27699 14.015 8.1034 13.3909 8.68134L14.9989 9.81639V11.8964H13.4247C13.5006 12.8605 14.1192 13.8254 14.9197 14.667C15.7692 15.5602 16.7913 16.2806 17.47 16.6685L17.5697 16.7254V19.8064H5.11133V16.7254L5.21097 16.6685C5.88972 16.2806 6.91177 15.5602 7.76127 14.667C8.56174 13.8254 9.18035 12.8605 9.25626 11.8964H7.6821V9.81639L9.17967 8.75928C8.50491 8.17902 8.0776 7.31908 8.0776 6.35933C8.0776 4.61189 9.49418 3.19531 11.2416 3.19531C12.9891 3.19531 14.4056 4.61189 14.4056 6.35933Z" fill="#AC5F1C"/>
<path d="M17.3593 19.5C12.9593 17.5 12.8595 13.8333 13.3595 12C14.1596 14.4 16.3595 16 17.3594 16.5C17.677 16.6588 17.8594 20 17.3593 19.5Z" fill="#773D0B"/>
<path d="M13.3594 4C13.6927 5.16667 13.8594 7.7 11.8594 8.5C14.3594 9 15.3594 5.5 13.3594 4Z" fill="#773D0B"/>
</svg>
