<svg width="23" height="23" viewBox="0 0 23 23" fill="none" xmlns="http://www.w3.org/2000/svg">
<path d="M5.75087 3.19531C5.75087 3.51071 5.8016 3.81418 5.89537 4.09801L5.26464 4.39388C4.74175 3.85188 4.0079 3.51476 3.19531 3.51476C1.60749 3.51476 0.320312 4.80194 0.320312 6.38976C0.320312 7.80515 1.34311 8.98165 2.68992 9.22048L4.20476 14.4142C4.23638 14.5226 4.28223 14.6264 4.34112 14.7227L5.2142 16.1514L5.20883 16.1523C4.59848 16.2603 4.15365 16.7908 4.15365 17.4106V19.8064C4.15365 20.5121 4.72573 21.0842 5.43142 21.0842L17.5949 21.0842C17.9338 21.0842 18.2588 20.9496 18.4984 20.71C18.738 20.4703 18.8727 20.1453 18.8727 19.8064V17.4106C18.8727 16.79 18.4268 16.2592 17.8156 16.152L17.7899 16.1475L18.6606 14.7227C18.7195 14.6264 18.7654 14.5226 18.797 14.4142L20.3118 9.22048C21.6586 8.98165 22.6814 7.80515 22.6814 6.38976C22.6814 4.80194 21.3942 3.51476 19.8064 3.51476C18.9928 3.51476 18.2581 3.85273 17.7351 4.39593L17.1055 4.10059C17.1998 3.81601 17.2509 3.51167 17.2509 3.19531C17.2509 1.60749 15.9637 0.320312 14.3759 0.320312C12.7881 0.320312 11.5009 1.60749 11.5009 3.19531C11.5009 1.60749 10.2137 0.320312 8.62587 0.320312C7.03805 0.320312 5.75087 1.60749 5.75087 3.19531Z" fill="black"/>
<path d="M9.19877 4.68221C9.79766 4.4518 10.2227 3.87102 10.2227 3.19097C10.2227 2.30885 9.50756 1.59375 8.62543 1.59375C7.74331 1.59375 7.02821 2.30885 7.02821 3.19097C7.02821 4.00615 7.63889 4.67869 8.42772 4.77608L7.71543 10.5382L4.28169 7.55588C4.59566 7.26421 4.7921 6.84776 4.7921 6.38542C4.7921 5.5033 4.077 4.7882 3.19488 4.7882C2.31276 4.7882 1.59766 5.5033 1.59766 6.38542C1.59766 7.26754 2.31276 7.98264 3.19488 7.98264C3.35016 7.98264 3.50027 7.96048 3.64222 7.91915L5.43099 14.0521L7.28077 17.079L5.43099 17.4062V19.8021L17.5945 19.8021V17.4062L15.7209 17.0777L17.5699 14.0521L19.3587 7.91915C19.5006 7.96048 19.6507 7.98264 19.806 7.98264C20.6881 7.98264 21.4032 7.26754 21.4032 6.38542C21.4032 5.5033 20.6881 4.7882 19.806 4.7882C18.9239 4.7882 18.2088 5.5033 18.2088 6.38542C18.2088 6.84776 18.4052 7.26421 18.7192 7.55588L15.2854 10.5382L14.5731 4.77608C15.362 4.67869 15.9727 4.00615 15.9727 3.19097C15.9727 2.30885 15.2576 1.59375 14.3754 1.59375C13.4933 1.59375 12.7782 2.30885 12.7782 3.19097C12.7782 3.87102 13.2032 4.4518 13.8021 4.68221L11.5004 9.8993L9.19877 4.68221Z" fill="#AC5F1C"/>
<path d="M5 17L18 17" stroke="black"/>
<path d="M13 16.5C15.4 15.7 17.8333 10.5 19 8C19 11.5 17 15.5 16 16.5H13Z" fill="#773D0B"/>
<path d="M8.99997 2C9.49997 2.5 8.00134 4.9993 8.99997 4.5C10 4 10.3333 2.5 8.99997 2Z" fill="#773D0B"/>
<path d="M15.2996 2.43881C15.5 3.5 13.8638 4.5944 14.7255 4.35465C15.9967 4.00097 16.114 3.2048 15.2996 2.43881Z" fill="#773D0B"/>
</svg>
