<svg width="23" height="23" viewBox="0 0 23 23" fill="none" xmlns="http://www.w3.org/2000/svg">
<path d="M9.48345 0.164265C9.90406 0.11697 10.3208 0.28102 10.5963 0.602341L13.2033 3.64296C16.1971 4.38279 17.9317 6.63712 18.8911 9.45137C19.8797 12.3512 20.1242 16.0327 20.1242 19.8079C20.1242 20.5136 19.5521 21.0856 18.8464 21.0856H6.93271C6.25435 21.0856 5.69423 20.5556 5.65687 19.8782C5.62354 19.2738 5.76261 18.225 6.18638 17.1537L6.19417 17.1341C4.99075 17.7801 3.65518 17.6254 2.66372 16.9195C1.45882 16.0616 0.78887 14.3822 1.5543 12.7238C2.10626 11.5279 2.70116 10.8946 3.15119 10.4156C3.57156 9.96826 3.74675 9.77148 3.87068 9.27575C4.62209 6.2701 6.16796 4.53865 7.82809 3.74847C7.80408 3.40606 7.82361 3.07617 7.86561 2.77666C7.97016 2.03113 8.23041 1.34219 8.49571 0.838543C8.69296 0.464063 9.06285 0.21156 9.48345 0.164265Z" fill="black"/>
<path fill-rule="evenodd" clip-rule="evenodd" d="M12.5137 4.79554L9.62787 1.42969C9.21013 2.22274 8.80515 3.62241 9.3874 4.63284C9.1048 4.658 8.83472 4.7058 8.62582 4.78963C7.29306 5.32448 5.83069 6.7063 5.11194 9.5813C4.90381 10.4138 4.52923 10.8124 4.08403 11.2863C3.66407 11.7332 3.18128 12.247 2.7161 13.2549C1.75777 15.3313 4.34409 17.4077 6.22999 15.5218C7.29027 14.4615 8.21705 14.0238 8.99516 13.6563C10.1151 13.1274 10.927 12.7439 11.3856 10.8591C11.6038 11.7383 11.5165 13.8132 9.42182 15.0793C7.3271 16.3453 6.8907 19.0122 6.93434 19.8035H18.848C18.848 12.2912 17.8534 5.80061 12.5137 4.79554Z" fill="#FFBA58"/>
<circle cx="8.94466" cy="8.6224" r="0.958333" fill="black"/>
<path d="M15.8597 6.5C16.8597 10 18.3594 15 15.3597 19.5C14.8051 20.3321 17.8597 20 18.8597 20C19.3597 20 18.8597 9 15.8597 6.5Z" fill="#D58F2D"/>
<path d="M11.3594 9C12.1927 9.66667 13.2594 12 10.8594 14C11.6594 12.4 11.526 9.83333 11.3594 9Z" fill="#D58F2D"/>
</svg>
