<svg width="23" height="23" viewBox="0 0 23 23" fill="none" xmlns="http://www.w3.org/2000/svg">
<path d="M8.40544 5.39606C8.27703 5.04334 8.20683 4.6626 8.20683 4.26596C8.20683 2.44064 9.68654 0.960938 11.5119 0.960938C13.3372 0.960938 14.8169 2.44064 14.8169 4.26596C14.8169 4.80064 14.6891 5.30747 14.4626 5.75564C14.7885 5.77819 15.1053 5.92505 15.3362 6.18896C16.5908 7.62285 17.6888 9.66732 17.6888 12.0371C17.6888 13.7312 17.1055 14.9867 16.3174 15.8912L17.8143 16.1538C18.4255 16.261 18.8714 16.7918 18.8714 17.4123V19.8082C18.8714 20.1471 18.7367 20.4721 18.4971 20.7117C18.2575 20.9513 17.9325 21.0859 17.5936 21.0859L5.43012 21.0859C4.72442 21.0859 4.15234 20.5139 4.15234 19.8082V17.4123C4.15234 16.7925 4.59718 16.2621 5.20753 16.1541L6.55784 15.9152C5.75895 15.0089 5.16597 13.7465 5.16597 12.0371C5.16597 10.1882 5.88245 8.57806 6.72279 7.34409C7.25099 6.56848 7.84899 5.91001 8.40544 5.39606Z" fill="black"/>
<path d="M12.138 11.8638H10.8602C10.8602 9.51752 11.5719 7.17519 13.1462 5.46065C13.3929 5.12485 13.5387 4.71025 13.5387 4.26162C13.5387 3.142 12.631 2.23438 11.5114 2.23438C10.3918 2.23438 9.48417 3.142 9.48417 4.26162C9.48417 4.814 9.70512 5.31479 10.0634 5.68044C8.79708 6.58321 6.44331 9.00304 6.44331 12.0327C6.44331 15.0902 8.84046 16.328 10.098 16.5821L5.42969 17.408V19.8038L17.5931 19.8038V17.408L12.8141 16.5698C14.0859 16.2899 16.4106 15.0436 16.4106 12.0327C16.4106 10.0612 15.4922 8.30382 14.3741 7.02604C13.1462 7.98438 12.138 10.2205 12.138 11.8638Z" fill="#FFBA58"/>
<path d="M13.3598 5C11.6931 5.66685 8.8599 8.00027 10.8598 12C10.6054 8.50322 12.8594 6 13.3598 5Z" fill="#D58F2D"/>
<path d="M14.3594 7C15.1927 8.83333 16.1594 13.3 13.3594 16.5C16.8594 15 17.8594 10 14.3594 7Z" fill="#D58F2D"/>
<path d="M4.85938 17H17.8594" stroke="black"/>
</svg>
