<svg width="23" height="23" viewBox="0 0 23 23" fill="none" xmlns="http://www.w3.org/2000/svg">
<path d="M8.30621 1.59375C8.53895 1.59375 8.75715 1.65597 8.9451 1.76469C9.13304 1.65597 9.35125 1.59375 9.58398 1.59375H13.0979C13.3306 1.59375 13.5488 1.65597 13.7368 1.76469C13.9247 1.65597 14.1429 1.59375 14.3757 1.59375H17.5701C18.2758 1.59375 18.8479 2.16583 18.8479 2.87153V5.74653C18.8479 6.14872 18.6585 6.52744 18.3368 6.76875L16.3651 8.24749L16.9234 13.2721C17.0712 14.6023 17.6904 15.2773 18.5923 16.4799C18.7582 16.701 18.8479 16.9701 18.8479 17.2465V19.8021C18.8479 20.5078 18.2758 21.0799 17.5701 21.0799H5.11176C4.40606 21.0799 3.83398 20.5078 3.83398 19.8021V17.2465C3.83398 16.9701 3.92366 16.701 4.08954 16.4799C4.99149 15.2773 5.61066 14.6023 5.75847 13.2721L6.31675 8.24749L4.3451 6.76875C4.02334 6.52744 3.83398 6.14872 3.83398 5.74653V2.87153C3.83398 2.16583 4.40606 1.59375 5.11176 1.59375H8.30621Z" fill="black"/>
<path d="M5.11133 2.875H8.30577V4.79167H9.58355V2.875H13.0974V4.79167H14.3752V2.875H17.5697V5.75L15.0141 7.66667L15.653 13.4167H7.028L7.66688 7.66667L5.11133 5.75V2.875Z" fill="#FFBA58"/>
<path d="M7.02799 14.6944H15.653L17.5697 17.25V19.8056H5.11133V17.25L7.02799 14.6944Z" fill="#FFBA58"/>
<path d="M7.35938 8H15.3594" stroke="black"/>
<path d="M15.3594 13.5C14.5594 10.3 11.526 8.83333 9.85938 8.5H15.2339C15.4006 8.66667 16.3594 13.5 15.3594 13.5Z" fill="#D58F2D"/>
<path d="M17.8594 5.99264C17.8594 4.62581 17.8594 2 17.3594 2.99264C16.3594 5.49264 15.8594 6.49264 13.8594 7.49264H15.3594L17.8594 5.99264Z" fill="#D58F2D"/>
</svg>
