<svg width="23" height="23" viewBox="0 0 23 23" fill="none" xmlns="http://www.w3.org/2000/svg">
<path fill-rule="evenodd" clip-rule="evenodd" d="M9.58318 1.23787C9.60474 0.548045 10.1702 0 10.8603 0H12.777C13.4672 0 14.0326 0.548045 14.0542 1.23787L14.0654 1.59722H14.6937C15.3994 1.59722 15.9714 2.1693 15.9714 2.875V3.64999C17.3643 3.3348 18.8676 3.54534 20.1436 4.60866C22.7944 6.81767 22.5505 11.4483 19.4046 13.9811C18.6454 14.5923 18.049 15.099 17.6383 15.6211C17.5446 15.7403 17.4643 15.8555 17.3967 15.9683L18.6917 16.1435C19.3254 16.2292 19.7982 16.7702 19.7982 17.4097V19.8056C19.7982 20.5113 19.2261 21.0833 18.5204 21.0833H5.1169C4.4112 21.0833 3.83912 20.5113 3.83912 19.8056V17.4097C3.83912 16.7702 4.3119 16.2292 4.94564 16.1435L6.24063 15.9683C6.17306 15.8555 6.09279 15.7403 5.99908 15.6211C5.58838 15.099 4.99196 14.5923 4.23277 13.9811C1.08681 11.4483 0.842907 6.81767 3.49371 4.60866C4.7697 3.54534 6.27306 3.3348 7.66589 3.64999V2.875C7.66589 2.1693 8.23797 1.59722 8.94367 1.59722H9.57195L9.58318 1.23787Z" fill="black"/>
<path fill-rule="evenodd" clip-rule="evenodd" d="M10.8617 1.28125H12.7783L12.8283 2.87847H14.695V4.79514H12.8882L12.9759 6.96512C13.011 6.92386 13.047 6.8834 13.0842 6.84389C14.8294 4.98907 17.4169 4.00203 19.327 5.59375C21.2436 7.19097 21.2436 10.8646 18.6046 12.9893C17.1097 14.1928 15.7707 15.3531 15.8367 17.05L18.5218 17.4132V19.809H5.11824V17.4132L7.80336 17.05C7.86934 15.3531 6.53033 14.1928 5.03542 12.9893C2.3964 10.8646 2.3964 7.19097 4.31307 5.59375C6.22314 4.00203 8.81065 4.98907 10.5558 6.84389C10.593 6.8834 10.6291 6.92386 10.6641 6.96512L10.7519 4.79514H8.94501V2.87847H10.8118L10.8617 1.28125ZM9.05619 8.61989C10.2275 10.5385 10.3825 12.7813 10.3825 13.7566C9.79542 13.7576 7.58221 12.784 6.41042 11.1855C5.56683 10.0347 5.34686 8.32738 6.07001 7.66454C6.79317 7.00171 8.32412 7.42079 9.05619 8.61989ZM14.5838 8.61989C13.4125 10.5385 13.2575 12.7813 13.2575 13.7566C13.8446 13.7576 16.0578 12.784 17.2296 11.1855C18.0732 10.0347 18.2932 8.32738 17.57 7.66454C16.8469 7.00171 15.3159 7.42079 14.5838 8.61989Z" fill="#FFBA58"/>
<path d="M15.4983 15C20.6983 10.2 19.5 8 20 6.5C23 12 16.4989 13 15.9989 17C15 17 14.6983 15.8 15.4983 15Z" fill="#D58F2D"/>
</svg>
