<svg width="14" height="24" viewBox="0 0 14 24" fill="none" xmlns="http://www.w3.org/2000/svg">
<path d="M13.2185 23.3524H0.349609V19.69L1.50049 18.8528V18.0157C1.50049 18.0157 1.7185 17.777 2.03801 17.3879C2.76919 16.4974 4.03193 14.8192 4.43 13.4115C5.00202 11.3887 4.22075 7.65625 4.22075 7.65625H9.66127C9.66127 7.65625 8.77289 10.7609 9.24277 12.7837C9.5844 14.2544 10.8672 16.3522 11.5421 17.3879C11.7954 17.7766 11.963 18.0157 11.963 18.0157V18.8528L13.2185 19.69V23.3524Z" fill="#38180B"/>
<path d="M1.50049 18.8528L0.349609 19.69V23.3524H13.2185V19.69L11.963 18.8528M1.50049 18.8528V18.0157C1.50049 18.0157 1.7185 17.777 2.03801 17.3879M1.50049 18.8528H11.963M11.963 18.8528V18.0157C11.963 18.0157 11.7954 17.7766 11.5421 17.3879M2.03801 17.3879C2.76919 16.4974 4.03193 14.8192 4.43 13.4115C5.00202 11.3887 4.22075 7.65625 4.22075 7.65625H9.66127C9.66127 7.65625 8.77289 10.7609 9.24277 12.7837C9.5844 14.2544 10.8672 16.3522 11.5421 17.3879M2.03801 17.3879H11.5421" stroke="white" stroke-width="0.7"/>
<path d="M7.84549 2.87582C8.22823 2.61467 8.47233 2.21873 8.47233 1.77549C8.47233 0.989077 7.70394 0.351562 6.75607 0.351562C5.80821 0.351562 5.03981 0.989077 5.03981 1.77549C5.03981 2.2196 5.28487 2.61622 5.66891 2.87736L2.71061 5.2336C2.71061 5.2336 2.09766 5.81618 2.09766 6.3524C2.09766 6.88862 2.46543 7.97975 2.46543 7.97975L2.71061 9.30197H10.5564L10.9241 7.97975C10.9241 7.97975 11.4145 6.88862 11.4145 6.3524C11.4145 5.81618 10.9241 5.2336 10.9241 5.2336L7.84549 2.87582Z" fill="#38180B"/>
<path d="M2.46543 7.97975C2.46543 7.97975 2.09766 6.88862 2.09766 6.3524C2.09766 5.81618 2.71061 5.2336 2.71061 5.2336L5.66891 2.87736C5.28487 2.61622 5.03981 2.2196 5.03981 1.77549C5.03981 0.989077 5.80821 0.351562 6.75607 0.351562C7.70394 0.351562 8.47233 0.989077 8.47233 1.77549C8.47233 2.21873 8.22823 2.61467 7.84549 2.87582L10.9241 5.2336C10.9241 5.2336 11.4145 5.81618 11.4145 6.3524C11.4145 6.88862 10.9241 7.97975 10.9241 7.97975M2.46543 7.97975L2.71061 9.30197H10.5564L10.9241 7.97975M2.46543 7.97975H6.69478H10.9241" stroke="white" stroke-width="0.7"/>
</svg>
