<svg width="12" height="24" viewBox="0 0 12 24" fill="none" xmlns="http://www.w3.org/2000/svg">
<path d="M11.541 23.3487H0.349609V19.7946L1.35047 18.9823V18.17C1.35047 18.17 1.54006 17.9383 1.81792 17.5607C2.45379 16.6966 3.55192 15.0681 3.8981 13.7021C4.39556 11.7391 3.71613 8.11719 3.71613 8.11719H8.44746C8.44746 8.11719 7.67488 11.1299 8.08351 13.0928C8.3806 14.52 9.49622 16.5557 10.0831 17.5607C10.3034 17.938 10.4492 18.17 10.4492 18.17V18.9823L11.541 19.7946V23.3487Z" fill="#38180B"/>
<path d="M1.35047 18.9823L0.349609 19.7946V23.3487H11.541V19.7946L10.4492 18.9823M1.35047 18.9823V18.17C1.35047 18.17 1.54006 17.9383 1.81792 17.5607M1.35047 18.9823H10.4492M10.4492 18.9823V18.17C10.4492 18.17 10.3034 17.938 10.0831 17.5607M1.81792 17.5607C2.45379 16.6966 3.55192 15.0681 3.8981 13.7021C4.39556 11.7391 3.71613 8.11719 3.71613 8.11719H8.44746C8.44746 8.11719 7.67488 11.1299 8.08351 13.0928C8.3806 14.52 9.49622 16.5557 10.0831 17.5607M1.81792 17.5607H10.0831" stroke="white" stroke-width="0.7"/>
<path d="M6.77661 3.27457C7.0557 2.97819 7.33893 2.44227 7.33893 1.97838C7.33893 1.07989 6.68632 0.351562 5.88124 0.351562C5.07615 0.351562 4.42354 1.07989 4.42354 1.97838C4.42354 2.50741 4.81976 2.97749 5.17018 3.27457L4.42354 4.4186C4.42354 4.4186 3.32188 4.29504 2.64191 4.4186C1.96194 4.54216 0.779297 5.41277 0.779297 5.41277C0.779297 5.41277 2.18329 6.07807 2.64191 6.67807C3.10052 7.27806 3.77567 8.48564 3.77567 8.48564H3.20879V10.474H8.95859V8.48564H8.4727C8.4727 8.48564 8.97204 7.27806 9.52548 6.67807C10.0789 6.07807 11.3071 5.41277 11.3071 5.41277C11.3071 5.41277 10.2371 4.54216 9.52548 4.4186C8.81387 4.29504 7.66286 4.4186 7.66286 4.4186L6.77661 3.27457Z" fill="#38180B"/>
<path d="M3.77567 8.48564C3.77567 8.48564 3.10052 7.27806 2.64191 6.67807C2.18329 6.07807 0.779297 5.41277 0.779297 5.41277C0.779297 5.41277 1.96194 4.54216 2.64191 4.4186C3.32188 4.29504 4.42354 4.4186 4.42354 4.4186L5.17018 3.27457C4.81976 2.97749 4.42354 2.50741 4.42354 1.97838C4.42354 1.07989 5.07615 0.351562 5.88124 0.351562C6.68632 0.351562 7.33893 1.07989 7.33893 1.97838C7.33893 2.44227 7.0557 2.97819 6.77661 3.27457L7.66286 4.4186C7.66286 4.4186 8.81387 4.29504 9.52548 4.4186C10.2371 4.54216 11.3071 5.41277 11.3071 5.41277C11.3071 5.41277 10.0789 6.07807 9.52548 6.67807C8.97204 7.27806 8.4727 8.48564 8.4727 8.48564M3.77567 8.48564H3.20879V10.474H8.95859V8.48564H8.4727M3.77567 8.48564H8.4727" stroke="white" stroke-width="0.7"/>
</svg>
