<svg width="12" height="26" viewBox="0 0 12 26" fill="none" xmlns="http://www.w3.org/2000/svg">
<path d="M11.3496 25.6412H0.349609V22.5111L1.33335 21.7957V21.0802C1.33335 21.0802 1.5197 20.8762 1.79281 20.5436C2.4178 19.7826 3.49715 18.3483 3.83741 17.1453C4.32636 15.4165 3.65855 12.2266 3.65855 12.2266H8.30896C8.30896 12.2266 7.5496 14.8799 7.95124 16.6087C8.24325 17.8656 9.33978 19.6585 9.9166 20.5436C10.1331 20.8759 10.2764 21.0802 10.2764 21.0802V21.7957L11.3496 22.5111V25.6412Z" fill="#38180B"/>
<path d="M1.33335 21.7957L0.349609 22.5111V25.6412H11.3496V22.5111L10.2764 21.7957M1.33335 21.7957V21.0802C1.33335 21.0802 1.5197 20.8762 1.79281 20.5436M1.33335 21.7957H10.2764M10.2764 21.7957V21.0802C10.2764 21.0802 10.1331 20.8759 9.9166 20.5436M1.79281 20.5436C2.4178 19.7826 3.49715 18.3483 3.83741 17.1453C4.32636 15.4165 3.65855 12.2266 3.65855 12.2266H8.30896C8.30896 12.2266 7.5496 14.8799 7.95124 16.6087C8.24325 17.8656 9.33978 19.6585 9.9166 20.5436M1.79281 20.5436H9.9166" stroke="white" stroke-width="0.7"/>
<path d="M5.45183 3.60245V2.39739H4.22433V1.57906H5.37V0.351562H6.27016V1.57906H7.41583V2.39739H6.27016V3.59333C6.83765 3.74177 7.17033 4.20342 7.17033 4.77056C7.17033 5.17972 7.09473 5.4492 6.72664 5.71699L10.28 9.18955L8.31599 10.908H8.80699V12.7902H2.915V10.908H3.48783L1.6875 9.18955L4.879 5.67072H4.9351C4.60137 5.40069 4.55166 5.01606 4.55166 4.77056C4.55166 4.2232 4.92286 3.76165 5.45183 3.60245Z" fill="#38180B"/>
<path d="M8.31599 10.908L10.28 9.18955L6.72664 5.71699C7.09473 5.4492 7.17033 5.17972 7.17033 4.77056C7.17033 4.20342 6.83765 3.74177 6.27016 3.59333V2.39739H7.41583V1.57906H6.27016V0.351562H5.37V1.57906H4.22433V2.39739H5.45183V3.60245C4.92286 3.76165 4.55166 4.2232 4.55166 4.77056C4.55166 5.01606 4.60137 5.40069 4.9351 5.67072H4.879L1.6875 9.18955L3.48783 10.908M8.31599 10.908H8.80699V12.7902H2.915V10.908H3.48783M8.31599 10.908H3.48783" stroke="white" stroke-width="0.7"/>
</svg>
