<svg width="16" height="24" viewBox="0 0 16 24" fill="none" xmlns="http://www.w3.org/2000/svg">
<path d="M15.0079 23.6484H2.23011V19.9216L3.4014 18.9633L4.14677 17.366C4.14677 17.366 3.87582 16.01 4.3065 14.5975C4.93576 12.5338 7.34122 8.74103 7.34122 8.74103C7.34122 8.74103 6.54261 9.91233 4.78566 9.4864C3.02872 9.06047 1.27177 10.3383 1.27177 10.3383L0.419922 7.7827L3.4014 5.97251C3.4014 5.97251 3.37748 4.95746 4.14677 4.37529C4.91607 3.79312 7.34122 2.99103 7.34122 2.99103V0.648438C7.34122 0.648438 12.545 4.03008 13.7301 7.35677C14.9152 10.6835 13.4107 17.366 13.4107 17.366L13.8366 18.9633L15.0079 19.9216V23.6484Z" fill="white"/>
<path d="M13.8366 18.9633L15.0079 19.9216V23.6484H2.23011V19.9216L3.4014 18.9633M13.8366 18.9633L13.4107 17.366M13.8366 18.9633H3.4014M13.4107 17.366C13.4107 17.366 14.9152 10.6835 13.7301 7.35677C12.545 4.03008 7.34122 0.648438 7.34122 0.648438V2.99103C7.34122 2.99103 4.91607 3.79312 4.14677 4.37529C3.37748 4.95746 3.4014 5.97251 3.4014 5.97251L0.419922 7.7827L1.27177 10.3383C1.27177 10.3383 3.02872 9.06047 4.78566 9.4864C6.54261 9.91233 7.34122 8.74103 7.34122 8.74103C7.34122 8.74103 4.93576 12.5338 4.3065 14.5975C3.87582 16.01 4.14677 17.366 4.14677 17.366M13.4107 17.366H4.14677M4.14677 17.366L3.4014 18.9633" stroke="#38180B" stroke-width="0.7"/>
</svg>
