<svg width="14" height="24" viewBox="0 0 14 24" fill="none" xmlns="http://www.w3.org/2000/svg">
<path d="M13.6313 23.3546H0.349609V19.575L1.5374 18.711V17.8471C1.5374 17.8471 1.7624 17.6008 2.09217 17.1992C2.8468 16.2802 4.15003 14.5483 4.56087 13.0956C5.15124 11.0081 4.34491 7.15625 4.34491 7.15625H9.95993C9.95993 7.15625 9.04306 10.3602 9.528 12.4477C9.88059 13.9655 11.2046 16.1305 11.901 17.1992C12.1625 17.6004 12.3355 17.8471 12.3355 17.8471V18.711L13.6313 19.575V23.3546Z" fill="white"/>
<path d="M1.5374 18.711L0.349609 19.575V23.3546H13.6313V19.575L12.3355 18.711M1.5374 18.711V17.8471C1.5374 17.8471 1.7624 17.6008 2.09217 17.1992M1.5374 18.711H12.3355M12.3355 18.711V17.8471C12.3355 17.8471 12.1625 17.6004 11.901 17.1992M2.09217 17.1992C2.8468 16.2802 4.15003 14.5483 4.56087 13.0956C5.15124 11.0081 4.34491 7.15625 4.34491 7.15625H9.95993C9.95993 7.15625 9.04306 10.3602 9.528 12.4477C9.88059 13.9655 11.2046 16.1305 11.901 17.1992M2.09217 17.1992H11.901" stroke="#38180B" stroke-width="0.7"/>
<ellipse cx="7.1496" cy="4.34715" rx="3.9953" ry="3.99558" fill="white" stroke="#38180B" stroke-width="0.7"/>
</svg>
