<svg width="14" height="24" viewBox="0 0 14 24" fill="none" xmlns="http://www.w3.org/2000/svg">
<path d="M13.3603 23.3508H0.349609V19.6486L1.51316 18.8024V17.9562C1.51316 17.9562 1.73358 17.7149 2.05661 17.3216C2.79584 16.4214 4.07249 14.725 4.47494 13.3021C5.05327 11.2573 4.26339 7.48438 4.26339 7.48438H9.76383C9.76383 7.48438 8.86567 10.6227 9.34072 12.6674C9.68611 14.1541 10.9831 16.2747 11.6653 17.3216C11.9215 17.7145 12.0909 17.9562 12.0909 17.9562V18.8024L13.3603 19.6486V23.3508Z" fill="white"/>
<path d="M1.51317 18.8024L0.349609 19.6486V23.3508H13.3603V19.6486L12.0909 18.8024M1.51317 18.8024V17.9562C1.51317 17.9562 1.73358 17.7149 2.05661 17.3216M1.51317 18.8024H12.0909M12.0909 18.8024V17.9562C12.0909 17.9562 11.9215 17.7145 11.6653 17.3216M2.05661 17.3216C2.79584 16.4214 4.07249 14.725 4.47494 13.3021C5.05327 11.2573 4.26339 7.48438 4.26339 7.48438H9.76383C9.76383 7.48438 8.86567 10.6227 9.34072 12.6674C9.68611 14.1541 10.9831 16.2747 11.6653 17.3216M2.05661 17.3216H11.6653" stroke="#38180B" stroke-width="0.7"/>
<path d="M0.412109 0.351562H4.02688V4.1053H5.27814V0.351562H8.61485V4.1053H9.86611V0.351562H13.3418V6.60779V7.44196L12.2296 8.6932H1.94143L0.412109 7.44196V6.60779V0.351562Z" fill="white"/>
<path d="M0.412109 6.60779V7.44196L1.94143 8.6932H12.2296L13.3418 7.44196V6.60779M0.412109 6.60779V0.351562H4.02688V4.1053H5.27814V0.351562H8.61485V4.1053H9.86611V0.351562H13.3418V6.60779M0.412109 6.60779H13.3418" stroke="#38180B" stroke-width="0.7"/>
</svg>
