<svg width="17" height="19" viewBox="0 0 17 19" fill="none" xmlns="http://www.w3.org/2000/svg">
<path d="M0.878906 17.3219H15.9057V15.6172H0.878906V17.2149V17.3219Z" stroke="white" stroke-width="1.75651" stroke-linejoin="round"/>
<path d="M2.61328 13.6941L3.51016 12.2734H13.1414L14.0383 13.6941H2.61328Z" stroke="white" stroke-width="0.878254" stroke-linejoin="round"/>
<path d="M2.60938 15.9682V13.6953H14.1178V15.9682H2.60938Z" stroke="white" stroke-width="1.75651" stroke-linejoin="round"/>
<path d="M3.63672 12.2698V4.88281H13.017V12.2698H3.63672Z" stroke="white" stroke-width="1.75651"/>
<path d="M3.79357 5.21738L2 3.79689L14.7732 3.76562L12.9794 5.18612L3.79357 5.21738Z" stroke="white" stroke-width="1.75651" stroke-linejoin="round"/>
<path d="M2 3.46514V0.875H4.44172V2.01146H6.90435V0.875H10.0947V2.01146H12.2185V0.875H14.748V3.46514H2Z" stroke="white" stroke-width="1.75651" stroke-linejoin="round"/>
<path d="M1.11328 17.3118H15.6598V15.6953H1.11328V17.3118Z" fill="black" stroke="black" stroke-width="0.263476" stroke-linejoin="round"/>
<path d="M3 13.5424L3.80817 12.1953H12.9671L13.7753 13.5424H3Z" fill="black" stroke="black" stroke-width="0.263476" stroke-linejoin="round"/>
<path d="M2.73047 15.6945V13.5391H14.0445V15.6945H2.73047Z" fill="black" stroke="black" stroke-width="0.263476" stroke-linejoin="round"/>
<path d="M3.80664 12.1921V5.1875H12.9656V12.1921H3.80664Z" fill="black" stroke="black" stroke-width="0.263476"/>
<path d="M3.80775 5.19083L2.19141 3.84375H14.5829L12.9665 5.19083H3.80775Z" fill="black" stroke="black" stroke-width="0.263476" stroke-linejoin="round"/>
<path d="M2.19141 3.84257V1.14844H4.34647V2.22606H7.04025V1.14844H9.73403V2.22606H12.4278V1.14844H14.5829V3.84257H2.19141Z" fill="black" stroke="black" stroke-width="0.263476" stroke-linejoin="round"/>
<path d="M2.73047 15.1797H14.0445" stroke="white" stroke-width="0.702604" stroke-linecap="round"/>
<path d="M3.26758 13.0859H13.504" stroke="white" stroke-width="0.702604" stroke-linecap="round"/>
<path d="M3.80664 12.1953H12.9656" stroke="white" stroke-width="0.175651" stroke-linecap="round"/>
<path d="M3.80664 5.1875H12.9656" stroke="white" stroke-width="0.175651" stroke-linecap="round"/>
<path d="M2.19141 3.84375H14.5829" stroke="white" stroke-width="0.702604" stroke-linecap="round"/>
</svg>
