<svg width="19" height="19" viewBox="0 0 19 19" fill="none" xmlns="http://www.w3.org/2000/svg">
<path d="M8.92806 1.71875C15.5206 2.44981 18.526 6.31184 18.2388 18.369H4.90951C4.75266 11.8844 10.3053 14.6057 9.15711 6.28057" fill="white"/>
<path d="M10.7089 6.44464C10.9497 8.15021 7.79556 10.7618 6.26301 11.7177C4.38407 12.8895 4.49719 14.2622 3.13151 14.0612C2.408 13.1245 3.20774 13.0242 2.50513 13.4754C1.87894 13.4754 -0.00193067 14.0612 1.48753e-06 11.1319C1.48753e-06 9.96011 3.31875 4.10127 3.31875 4.10127C3.31875 4.10127 4.249 2.98678 4.32031 2.05073C3.86555 1.4681 4.13272 0.878973 4.13272 0.293002C4.75891 -0.292794 6.35663 1.75775 6.35663 1.75775H7.10736C7.10736 1.75775 7.75394 0.590714 8.82997 0C9.45617 0 9.45617 1.75775 9.45617 1.75775" fill="white"/>
<path d="M1.75194 10.6231C1.75194 10.7816 1.62354 10.9101 1.46475 10.9101C1.30631 10.9101 1.17773 10.7816 1.17773 10.6231C1.17773 10.4645 1.30614 10.3359 1.46475 10.3359C1.62336 10.3361 1.75194 10.4647 1.75194 10.6231Z" fill="#F2F2F2"/>
<path d="M4.87085 5.02032C4.63302 5.43222 4.32897 5.70186 4.19161 5.62264C4.05443 5.54342 4.13593 5.14522 4.37359 4.73332C4.61142 4.32142 4.91547 4.05178 5.05283 4.131C5.19001 4.21022 5.10851 4.60842 4.87085 5.02032Z" fill="#F2F2F2"/>
<path d="M10.3909 1.95312L10.2188 2.58476L10.5346 2.6422C12.3151 2.91621 14.1647 3.92499 15.4572 6.37058C16.7498 8.81617 17.1348 12.665 16.8494 18.3738L16.8208 18.3786H17.8255V18.3738C18.1143 12.5997 17.3223 8.69759 15.9597 6.11939C14.597 3.54118 12.6364 2.31075 10.6855 2.01057L10.3909 1.95312Z" fill="white"/>
<path d="M9.12296 2.23438C14.7798 2.7731 18.0123 6.54502 17.743 17.8601H5.35156C5.35156 13.0107 10.7391 14.3578 9.66151 6.54503" fill="black"/>
<path d="M9.12296 2.23438C14.7798 2.7731 18.0123 6.54502 17.743 17.8601H5.35156C5.35156 13.0107 10.7391 14.3578 9.66151 6.54503" stroke="black" stroke-width="0.175651" stroke-linecap="round"/>
<path d="M10.1996 6.54435C10.4069 8.11292 7.20795 10.5148 5.88969 11.3937C4.27336 12.4713 4.37084 13.7338 3.19574 13.5491C2.63453 13.0405 3.95736 11.9124 3.19574 11.9326C2.65701 11.9326 3.29674 12.5964 2.65701 13.0102C2.11847 13.0102 0.500373 13.5491 0.501954 10.855C0.501954 9.77739 3.73446 4.38911 3.73446 4.38911C3.73446 4.38911 4.75042 3.36418 4.81207 2.50314C4.42072 1.96741 4.54263 1.42552 4.54263 0.886625C5.08135 0.347903 6.15897 2.2337 6.15897 2.2337H7.23659C7.23659 2.2337 7.65762 1.16048 8.58348 0.617188C9.1222 0.617188 9.1222 2.2337 9.1222 2.2337" fill="black"/>
<path d="M10.1996 6.54435C10.4069 8.11292 7.20795 10.5148 5.88969 11.3937C4.27336 12.4713 4.37084 13.7338 3.19574 13.5491C2.63453 13.0405 3.95736 11.9124 3.19574 11.9326C2.65701 11.9326 3.29674 12.5964 2.65701 13.0102C2.11847 13.0102 0.500373 13.5491 0.501954 10.855C0.501954 9.77739 3.73446 4.38911 3.73446 4.38911C3.73446 4.38911 4.75042 3.36418 4.81207 2.50314C4.42072 1.96741 4.54263 1.42552 4.54263 0.886625C5.08135 0.347903 6.15897 2.2337 6.15897 2.2337H7.23659C7.23659 2.2337 7.65762 1.16048 8.58348 0.617188C9.1222 0.617188 9.1222 2.2337 9.1222 2.2337" stroke="black" stroke-width="0.175651" stroke-linecap="round" stroke-linejoin="round"/>
<path d="M2.38833 10.5819C2.38833 10.7307 2.26766 10.8514 2.11906 10.8514C1.97011 10.8514 1.84961 10.7307 1.84961 10.5819C1.84961 10.4332 1.97028 10.3125 2.11906 10.3125C2.26766 10.3127 2.38833 10.4332 2.38833 10.5819Z" fill="white" stroke="white" stroke-width="0.0572622" stroke-linecap="round" stroke-linejoin="round"/>
<path d="M5.31508 5.33189C5.09182 5.7185 4.80657 5.97161 4.67781 5.89714C4.54906 5.82284 4.62529 5.44903 4.84855 5.0626C5.0718 4.67599 5.35723 4.4229 5.48598 4.49738C5.61474 4.5715 5.53815 4.94511 5.31508 5.33189Z" fill="white" stroke="white" stroke-width="0.0572622" stroke-linecap="round" stroke-linejoin="round"/>
<path d="M10.3335 2.44531L10.1719 3.03813L10.4682 3.09206C12.1392 3.34921 13.8751 4.29596 15.0882 6.59101C16.301 8.88607 16.8257 12.3288 16.5577 17.6864L16.5308 17.9558H17.4737V17.6864C17.7445 12.2675 16.8384 8.77489 15.5596 6.3553C14.2809 3.93589 12.4408 2.78115 10.6096 2.49941L10.3335 2.44531Z" fill="white"/>
</svg>
