<svg width="21" height="20" viewBox="0 0 21 20" fill="none" xmlns="http://www.w3.org/2000/svg">
<path d="M3.10485 3.98823C3.10485 4.84032 2.41419 5.53115 1.56229 5.53115C0.710381 5.53115 0.0195312 4.84032 0.0195312 3.98823C0.0195312 3.13615 0.710381 2.44531 1.56229 2.44531C2.41419 2.44531 3.10485 3.13615 3.10485 3.98823Z" fill="white" stroke="white" stroke-width="0.0399957" stroke-linecap="round" stroke-linejoin="round"/>
<path d="M7.46616 2.05073C7.46616 2.90281 6.77551 3.59365 5.92342 3.59365C5.07134 3.59365 4.38086 2.90281 4.38086 2.05073C4.38086 1.19865 5.07152 0.507812 5.92342 0.507812C6.77551 0.507812 7.46616 1.19865 7.46616 2.05073Z" fill="white" stroke="white" stroke-width="0.0399957" stroke-linecap="round" stroke-linejoin="round"/>
<path d="M12.0345 1.56636C12.0345 2.41844 11.3437 3.10928 10.4918 3.10928C9.63988 3.10928 8.94922 2.41844 8.94922 1.56636C8.94922 0.714277 9.63988 0.0234375 10.4918 0.0234375C11.3437 0.0234375 12.0345 0.714277 12.0345 1.56636Z" fill="white" stroke="white" stroke-width="0.0399957" stroke-linecap="round" stroke-linejoin="round"/>
<path d="M16.6478 2.45698C16.6478 3.30906 15.9572 3.9999 15.1053 3.9999C14.2533 3.9999 13.5625 3.30906 13.5625 2.45698C13.5625 1.6049 14.2533 0.914062 15.1053 0.914062C15.9572 0.914062 16.6478 1.6049 16.6478 2.45698Z" fill="white" stroke="white" stroke-width="0.0399957" stroke-linecap="round" stroke-linejoin="round"/>
<path d="M2.4687 11.066C7.61141 10.1584 14.8637 10.1584 18.4938 11.066L19.4822 3.18388L15.6018 8.95278L15.4243 1.50167L12.2296 9.1381L10.4589 0.460938L8.73259 9.00512L5.53802 1.33217L5.49358 9.44074L1.61328 3.53869L2.4687 11.066Z" fill="white" stroke="white" stroke-width="0.175651" stroke-linejoin="round"/>
<path d="M2.46875 11.0635C2.46875 12.2738 3.19874 12.4067 3.80404 13.617C4.40898 14.5246 4.58639 14.0891 4.28392 15.6016C3.37634 16.2068 3.37634 17.1143 3.37634 17.1143C2.46875 18.0219 3.67899 18.9784 3.67899 18.9784C7.61164 19.5835 13.3069 19.5835 17.2398 18.9784C17.2398 18.9784 18.1472 18.0219 17.2398 17.1143C17.2398 17.1143 17.5422 16.2068 16.6346 15.6016C16.3322 14.0889 16.6872 14.3914 17.2921 13.4838C17.897 12.2736 18.4498 12.2736 18.4498 11.0633C13.3069 10.1559 7.61146 10.1559 2.46875 11.0635Z" fill="white" stroke="white" stroke-width="0.175651" stroke-linejoin="round"/>
<path d="M20.9505 3.96479C20.9505 4.81687 20.2599 5.50771 19.408 5.50771C18.5561 5.50771 17.8652 4.81687 17.8652 3.96479C17.8652 3.11253 18.5561 2.42188 19.408 2.42188C20.2599 2.42188 20.9505 3.11271 20.9505 3.96479Z" fill="white" stroke="white" stroke-width="0.0399957" stroke-linecap="round" stroke-linejoin="round"/>
<path d="M2.69606 4.00733C2.69606 4.60218 2.21333 5.08496 1.61854 5.08496C1.02375 5.08496 0.541016 4.60218 0.541016 4.00733C0.541016 3.41193 1.02375 2.92969 1.61854 2.92969C2.21333 2.92969 2.69606 3.41193 2.69606 4.00733Z" fill="black" stroke="black" stroke-width="0.175646" stroke-linecap="round" stroke-linejoin="round"/>
<path d="M11.5847 1.58545C11.5847 2.18085 11.102 2.66309 10.5072 2.66309C9.91242 2.66309 9.42969 2.18085 9.42969 1.58545C9.42969 0.990056 9.91242 0.507812 10.5072 0.507812C11.102 0.507812 11.5847 0.990056 11.5847 1.58545Z" fill="black" stroke="black" stroke-width="0.175646" stroke-linecap="round" stroke-linejoin="round"/>
<path d="M20.4754 4.00733C20.4754 4.60218 19.9926 5.08496 19.3978 5.08496C18.803 5.08496 18.3203 4.60218 18.3203 4.00733C18.3203 3.41193 18.803 2.92969 19.3978 2.92969C19.9926 2.92969 20.4754 3.41193 20.4754 4.00733Z" fill="black" stroke="black" stroke-width="0.175646" stroke-linecap="round" stroke-linejoin="round"/>
<path d="M7.00661 2.12451C7.00661 2.71937 6.52388 3.20215 5.92909 3.20215C5.33429 3.20215 4.85156 2.71991 4.85156 2.12451C4.85156 1.52912 5.33429 1.04688 5.92909 1.04688C6.52388 1.04688 7.00661 1.52912 7.00661 2.12451Z" fill="black" stroke="black" stroke-width="0.175646" stroke-linecap="round" stroke-linejoin="round"/>
<path d="M16.1648 2.39014C16.1648 2.98553 15.6826 3.46778 15.0873 3.46778C14.4925 3.46778 14.0098 2.985 14.0098 2.39014C14.0098 1.79528 14.4925 1.3125 15.0873 1.3125C15.6826 1.3125 16.1648 1.79528 16.1648 2.39014Z" fill="black" stroke="black" stroke-width="0.175646" stroke-linecap="round" stroke-linejoin="round"/>
<path d="M3.23573 11.5546C7.8152 10.7464 14.5497 10.7464 17.7823 11.5546L18.8598 5.08875L15.0885 11.0158V3.47229L12.1253 10.7464L10.509 2.66406L8.89272 10.7464L5.92953 3.20288V11.0158L2.1582 5.08875L3.23573 11.5546Z" fill="black" stroke="black" stroke-width="0.175646" stroke-linejoin="round"/>
<path d="M3.23438 11.5515C3.23438 12.6291 4.04252 12.6291 4.58128 13.7068C5.12004 14.515 5.12004 14.2456 4.85066 15.5926C4.04252 16.1314 4.04252 16.9397 4.04252 16.9397C3.23438 17.7479 4.3119 18.2867 4.3119 18.2867C7.81385 18.8255 13.2015 18.8255 16.7034 18.2867C16.7034 18.2867 17.5116 17.7479 16.7034 16.9397C16.7034 16.9397 16.9728 16.1314 16.1647 15.5926C15.8953 14.2456 15.8953 14.515 16.434 13.7068C16.9728 12.6291 17.7809 12.6291 17.7809 11.5515C13.2015 10.7433 7.81385 10.7433 3.23438 11.5515Z" fill="black" stroke="black" stroke-width="0.175646" stroke-linejoin="round"/>
<path d="M4.58203 13.7088C6.4677 13.17 14.5491 13.17 16.4348 13.7088" stroke="white" stroke-width="0.175646" stroke-linecap="round" stroke-linejoin="round"/>
<path d="M4.85156 15.5916C8.08413 15.0528 12.933 15.0528 16.1656 15.5916" stroke="white" stroke-width="0.175646" stroke-linecap="round" stroke-linejoin="round"/>
<path d="M4.04297 16.9432C6.73678 16.4044 14.0101 16.4044 16.7039 16.9432" stroke="white" stroke-width="0.175646" stroke-linecap="round" stroke-linejoin="round"/>
</svg>
