<svg width="20" height="20" viewBox="0 0 20 20" fill="none" xmlns="http://www.w3.org/2000/svg">
<path d="M1.57558 16.7607C3.0581 16.0391 7.64427 16.835 9.67517 15.4141C11.7061 16.8356 16.3498 15.9777 17.6859 16.7607C19.0077 17.5355 18.8511 17.2881 19.2201 18.2746C18.8139 18.843 18.5877 19.2061 17.7753 18.9219C15.7444 18.3535 11.7066 19.1897 9.67575 18.3372C7.64486 19.1897 3.60708 18.3535 1.57618 18.9219C0.763825 19.2061 0.537638 18.7985 0.130859 18.2302C0.942617 17.0928 0.165051 17.4466 1.57558 16.7607Z" fill="white" stroke="white" stroke-width="0.263458" stroke-linejoin="round"/>
<path d="M5.17513 15.1266C6.67506 16.5885 12.6747 16.5885 14.1747 15.1266C14.4747 14.2495 14.1747 13.9571 14.1747 13.9571C14.1747 12.4953 12.9369 11.6182 12.9369 11.6182C16.2368 10.7411 16.274 4.89365 9.6743 2.55469C3.07464 4.89365 3.24142 10.8299 6.54125 11.707C6.54125 11.707 5.13013 12.2736 5.13013 13.7355C5.13073 13.7355 4.87515 14.2495 5.17513 15.1266Z" fill="white" stroke="white" stroke-width="0.263458" stroke-linejoin="round"/>
<path d="M11.4906 1.84136C11.4906 2.798 10.6495 3.57339 9.61152 3.57339C8.57357 3.57339 7.73242 2.798 7.73242 1.84136C7.73242 0.884727 8.57357 0.109375 9.61152 0.109375C10.6489 0.108791 11.4906 0.884727 11.4906 1.84136Z" fill="white" stroke="white" stroke-width="0.216251" stroke-linejoin="round"/>
<path d="M6.67578 11.6172H12.6755Z" fill="#FF8BFF"/>
<path d="M6.67578 11.6172H12.6755" stroke="#FF78FF" stroke-width="0.263458" stroke-linecap="round"/>
<path d="M9.67578 5.47656V8.40027Z" fill="#FF8BFF"/>
<path d="M9.67578 5.47656V8.40027" stroke="#FF78FF" stroke-width="0.263458" stroke-linecap="round"/>
<path d="M8.17578 6.9375H11.1756Z" fill="#FF8BFF"/>
<path d="M8.17578 6.9375H11.1756" stroke="#FF78FF" stroke-width="0.263458" stroke-linecap="round"/>
<path d="M2.36043 16.9839C4.18413 16.4602 7.81001 17.2161 9.63371 15.9062C11.4574 17.2161 15.0833 16.4602 16.907 16.9839C16.907 16.9839 17.7938 17.2759 18.5233 18.0615C18.1585 18.5853 17.6365 18.5928 16.907 18.3309C15.0833 17.8072 11.4574 18.5777 9.63371 17.7921C7.81001 18.5783 4.18413 17.8072 2.36043 18.3309C1.63094 18.5928 1.10888 18.5853 0.744141 18.0615C1.47362 17.0135 2.36043 16.9839 2.36043 16.9839Z" fill="black" stroke="black" stroke-width="0.263469" stroke-linejoin="round"/>
<path d="M5.59355 14.8268C6.94045 16.1739 12.3281 16.1739 13.675 14.8268C13.9444 14.0186 13.675 13.7492 13.675 13.7492C13.675 12.4021 12.3281 11.5939 12.3281 11.5939C15.2913 10.7857 15.5606 5.39746 9.63426 3.24219C3.70788 5.39746 3.97727 10.7857 6.94045 11.5939C6.94045 11.5939 5.59355 12.4021 5.59355 13.7492C5.59355 13.7492 5.32417 14.0186 5.59355 14.8268Z" fill="black" stroke="black" stroke-width="0.263469" stroke-linejoin="round"/>
<path d="M10.9809 1.89392C10.9809 2.63803 10.378 3.24097 9.63401 3.24097C8.88998 3.24097 8.28711 2.63803 8.28711 1.89392C8.28711 1.14981 8.88998 0.546875 9.63401 0.546875C10.3775 0.546875 10.9809 1.14981 10.9809 1.89392Z" fill="black" stroke="black" stroke-width="0.263469" stroke-linejoin="round"/>
<path d="M6.93945 11.5938H12.3271" stroke="white" stroke-width="0.263469" stroke-linecap="round"/>
<path d="M5.59375 13.75H13.6752" stroke="white" stroke-width="0.263469" stroke-linecap="round"/>
<path d="M9.63281 5.9375V8.6316" stroke="white" stroke-width="0.263469" stroke-linecap="round"/>
<path d="M8.28711 7.28125H10.9809" stroke="white" stroke-width="0.263469" stroke-linecap="round"/>
</svg>
