<svg width="20" height="20" viewBox="0 0 20 20" fill="none" xmlns="http://www.w3.org/2000/svg">
<path d="M9.95117 4.1571V0.523438Z" fill="white"/>
<path d="M9.95117 4.1571V0.523438" stroke="white" stroke-width="1.05389" stroke-linecap="round"/>
<path d="M9.95035 11.6087C9.95035 11.6087 13.0347 6.71926 12.0658 4.78131C12.0658 4.78131 11.2422 3.21094 9.95035 3.21094C8.65845 3.21094 7.83485 4.87045 7.83485 4.87045C6.86593 6.80841 9.95035 11.6087 9.95035 11.6087Z" fill="white" stroke="white" stroke-width="0.26349"/>
<path d="M3.06707 17.9994C6.61978 20.2603 12.8571 20.2158 16.4105 17.9548L16.3659 13.8767C16.3659 13.8767 21.1149 11.5466 19.177 7.67071C16.5932 3.47181 10.4567 5.40976 8.84185 10.2546L9.95097 11.4956V9.23465C7.60165 5.2767 3.01733 3.78253 0.636363 7.40457C-1.30148 11.2805 2.9786 13.8644 2.9786 13.8644L3.06707 17.9994Z" fill="white" stroke="white" stroke-width="0.26349" stroke-linecap="round" stroke-linejoin="round"/>
<path d="M8.33594 1.8125H11.5657Z" fill="white"/>
<path d="M8.33594 1.8125H11.5657" stroke="white" stroke-width="1.05389" stroke-linecap="round"/>
<path d="M9.96484 3.82773V0.796875" stroke="black" stroke-width="0.263469" stroke-linecap="round"/>
<path d="M9.96481 11.0359C9.96481 11.0359 12.3892 6.99476 11.5811 5.3783C11.5811 5.3783 11.0423 4.03125 9.96481 4.03125C8.88728 4.03125 8.34852 5.3783 8.34852 5.3783C7.54038 6.99476 9.96481 11.0359 9.96481 11.0359Z" fill="black" stroke="black" stroke-width="0.263469"/>
<path d="M4.03889 17.5008C7.00207 19.3867 12.3897 19.3867 15.3529 17.5008V13.7291C15.3529 13.7291 20.2017 11.3044 18.5854 8.07146C16.4304 4.56914 11.3122 6.18559 9.96526 10.2267C8.0796 6.18559 2.96136 4.56914 1.34508 8.07146C-0.271206 11.3044 4.03889 13.4597 4.03889 13.4597V17.5008Z" fill="black"/>
<path d="M9.96526 10.2267C11.3122 6.18559 16.4304 4.56914 18.5854 8.07146C20.2017 11.3044 15.3529 13.7291 15.3529 13.7291V17.5008C12.3897 19.3867 7.00207 19.3867 4.03889 17.5008V13.4597C4.03889 13.4597 -0.271206 11.3044 1.34508 8.07146C2.96136 4.56914 8.0796 6.18559 9.96526 10.2267ZM9.96526 10.2267V12.1126" stroke="black" stroke-width="0.263469" stroke-linecap="round" stroke-linejoin="round"/>
<path d="M8.61914 1.875H11.3129" stroke="black" stroke-width="0.263469" stroke-linecap="round"/>
<path d="M4.03906 13.4555C7.00225 12.1084 12.3899 12.1084 15.3531 13.7249" stroke="white" stroke-width="0.263469" stroke-linecap="round"/>
<path d="M4.03906 17.5025C7.00225 16.1554 12.3899 16.1554 15.3531 17.5025" stroke="white" stroke-width="0.263469" stroke-linecap="round" stroke-linejoin="round"/>
<path d="M4.03906 15.6129C7.00225 14.5353 12.3899 14.5353 15.3531 15.6129" stroke="white" stroke-width="0.263469" stroke-linecap="round" stroke-linejoin="round"/>
<path d="M15.0838 13.4576C15.0838 13.4576 19.6633 11.3023 18.3304 8.25632C16.2405 5.10423 11.3124 7.26113 9.96555 10.7635M9.96555 10.7635L9.9715 11.8934M9.96555 10.7635C8.61864 7.26113 3.18039 5.10423 1.61313 8.25632C0.267305 11.3023 4.22506 13.1057 4.22506 13.1057" stroke="white" stroke-width="0.263469" stroke-linecap="round" stroke-linejoin="round"/>
</svg>
