<svg width="14" height="18" viewBox="0 0 14 18" fill="none" xmlns="http://www.w3.org/2000/svg">
<path d="M6.63519 0.4375C5.44568 0.4375 4.48013 1.40306 4.48013 2.59291C4.48013 3.0698 4.63839 3.51543 4.90099 3.87253C3.84937 4.47695 3.13324 5.60409 3.13324 6.90338C3.13324 7.99927 3.64087 8.97203 4.42971 9.61438C2.8139 10.1844 0.439453 12.6031 0.439453 16.8716H12.8309C12.8309 12.6031 10.4565 10.1844 8.84066 9.61438C9.62951 8.97203 10.137 7.99927 10.137 6.90338C10.137 5.60409 9.42084 4.47712 8.36921 3.87253C8.63181 3.51543 8.79007 3.0698 8.79007 2.59291C8.79025 1.40323 7.82487 0.4375 6.63519 0.4375Z" fill="black" stroke="white" stroke-width="0.878255" stroke-linecap="round"/>
</svg>
