<svg width="19" height="19" viewBox="0 0 19 19" fill="none" xmlns="http://www.w3.org/2000/svg">
<path d="M2.05574 16.8745C3.87945 16.3508 7.50531 17.1067 9.32902 15.7969C11.1527 17.1067 14.7786 16.3508 16.6023 16.8745C16.6023 16.8745 17.4891 17.1666 18.2186 17.9522C17.8538 18.4759 17.3318 18.4834 16.6023 18.2216C14.7786 17.6978 11.1527 18.4683 9.32902 17.6827C7.50531 18.4683 3.87945 17.6978 2.05574 18.2216C1.32625 18.4834 0.804195 18.4759 0.439453 17.9522C1.16894 16.9047 2.05574 16.8745 2.05574 16.8745Z" fill="white" stroke="black" stroke-width="0.878228" stroke-linejoin="round"/>
<path d="M5.28886 14.7174C6.63577 16.0644 12.0234 16.0644 13.3703 14.7174C13.6397 13.9092 13.3703 13.6398 13.3703 13.6398C13.3703 12.2927 12.0234 11.4845 12.0234 11.4845C14.9866 10.6763 15.256 5.28809 9.32957 3.13281C3.4032 5.28809 3.67258 10.6763 6.63577 11.4845C6.63577 11.4845 5.28886 12.2927 5.28886 13.6398C5.28886 13.6398 5.01948 13.9092 5.28886 14.7174Z" fill="white" stroke="black" stroke-width="0.878228" stroke-linejoin="round"/>
<path d="M10.6762 1.78455C10.6762 2.52866 10.0734 3.1316 9.32933 3.1316C8.5853 3.1316 7.98242 2.52866 7.98242 1.78455C7.98242 1.04044 8.5853 0.4375 9.32933 0.4375C10.0728 0.4375 10.6762 1.04098 10.6762 1.78455Z" fill="white" stroke="black" stroke-width="0.878228" stroke-linejoin="round"/>
<path d="M6.63477 11.4844H12.0224" stroke="black" stroke-width="0.878228"/>
<path d="M5.28906 13.6406H13.3705" stroke="black" stroke-width="0.878228"/>
<path d="M9.32812 5.82812V8.52222" stroke="black" stroke-width="0.878228" stroke-linecap="round"/>
<path d="M7.98242 7.17188H10.6762" stroke="black" stroke-width="0.878228" stroke-linecap="round"/>
</svg>
