<svg width="14" height="18" viewBox="0 0 14 18" fill="none" xmlns="http://www.w3.org/2000/svg">
<path d="M6.63519 0.4375C5.44568 0.4375 4.48013 1.40288 4.48013 2.59274C4.48013 3.06962 4.63857 3.51543 4.90099 3.87234C3.84937 4.47693 3.13324 5.60392 3.13324 6.90338C3.13324 7.99927 3.64087 8.97185 4.42954 9.61438C2.81372 10.1844 0.439453 12.6031 0.439453 16.8716H12.8309C12.8309 12.6029 10.4565 10.1844 8.84084 9.61438C9.62969 8.97201 10.1371 7.99943 10.1371 6.90338C10.1371 5.60409 9.42101 4.47711 8.36939 3.87234C8.63199 3.51543 8.79025 3.06962 8.79025 2.59274C8.79025 1.40288 7.8247 0.4375 6.63519 0.4375Z" fill="white" stroke="black" stroke-width="0.878255" stroke-linecap="round"/>
</svg>
