<svg width="16" height="18" viewBox="0 0 16 18" fill="none" xmlns="http://www.w3.org/2000/svg">
<path d="M0.439453 16.6008H14.986V14.9844H0.439453V16.6008Z" fill="white" stroke="black" stroke-width="0.878228" stroke-linejoin="round"/>
<path d="M2.05664 14.9834V12.8281H13.3706V14.9834H2.05664Z" fill="white" stroke="black" stroke-width="0.878228" stroke-linejoin="round"/>
<path d="M1.51758 3.1316V0.4375H3.67262V1.51514H6.36643V0.4375H9.06024V1.51514H11.754V0.4375H13.9091V3.1316" fill="white"/>
<path d="M1.51758 3.1316V0.4375H3.67262V1.51514H6.36643V0.4375H9.06024V1.51514H11.754V0.4375H13.9091V3.1316" stroke="black" stroke-width="0.878228" stroke-linejoin="round"/>
<path d="M13.9071 3.13281L12.2909 4.74927H3.13191L1.51562 3.13281" fill="white"/>
<path d="M13.9071 3.13281L12.2909 4.74927H3.13191L1.51562 3.13281" stroke="black" stroke-width="0.878228" stroke-linecap="round" stroke-linejoin="round"/>
<path d="M12.2918 4.75V11.4852H3.13281V4.75" fill="white"/>
<path d="M12.2918 4.75V11.4852H3.13281V4.75" stroke="black" stroke-width="0.878228"/>
<path d="M12.2913 11.4844L13.0994 12.8314H2.32422L3.13236 11.4844" fill="white"/>
<path d="M12.2913 11.4844L13.0994 12.8314H2.32422L3.13236 11.4844" stroke="black" stroke-width="0.878228" stroke-linecap="round" stroke-linejoin="round"/>
<path d="M1.51758 3.13281H13.9091" stroke="black" stroke-width="0.878228" stroke-linecap="round"/>
</svg>
