<svg width="22" height="21" viewBox="0 0 22 21" fill="none" xmlns="http://www.w3.org/2000/svg">
<path d="M2.61529 11.9853C7.75799 11.0777 15.2766 11.4547 18.9066 12.3624C18.9066 12.3624 20.7121 4.53981 20.0281 3.51506C19.3437 2.49031 16.1699 8.26362 16.1699 8.26362L15.5709 0.8125L12.7314 7.80569C12.7314 7.80569 11.7184 1.59591 10.7609 1.63473C9.80345 1.67372 8.90148 7.96097 8.90148 7.96097C8.90148 7.96097 7.38719 2.02573 6.15044 2.08475C4.89155 2.14377 5.37423 8.37462 5.37423 8.37462C5.37423 8.37462 2.42769 2.92295 1.73791 3.82562C1.04813 4.72847 2.61529 11.9853 2.61529 11.9853Z" fill="white" stroke="white" stroke-width="0.175651" stroke-linejoin="round"/>
<path d="M2.41602 11.0768C2.41602 12.3582 2.64032 13.0315 3.70336 14.1131C4.01233 14.5862 4.47324 14.6796 4.09682 15.6158C3.10123 16.2566 3.07892 17.5726 3.07892 17.5726C2.77083 18.4893 3.43321 19.5241 3.43321 19.5241C7.74772 20.1647 13.3538 20.1669 17.8678 19.5906C17.8678 19.5906 18.4644 18.7997 18.2448 17.8385C18.2448 17.8385 18.2884 16.3674 17.5144 15.7047C17.3377 14.5243 17.705 14.5786 18.1693 13.928C18.8773 12.8463 19.1067 12.6466 19.1067 11.3653C13.4643 10.4043 8.05845 10.116 2.41602 11.0768Z" fill="white" stroke="white" stroke-width="0.175651" stroke-linejoin="round"/>
<path d="M21.5189 4.33003C21.5189 5.35355 20.6891 6.1835 19.6658 6.1835C18.6423 6.1835 17.8125 5.35355 17.8125 4.33003C17.8125 3.30651 18.6423 2.47656 19.6658 2.47656C20.6891 2.47656 21.5189 3.30651 21.5189 4.33003Z" fill="white" stroke="white" stroke-width="0.0333034" stroke-linecap="round" stroke-linejoin="round"/>
<path d="M3.72416 4.30659C3.72416 5.33011 2.89439 6.16006 1.87087 6.16006C0.847352 6.16006 0.0175781 5.33011 0.0175781 4.30659C0.0175781 3.28308 0.847352 2.45312 1.87087 2.45312C2.89439 2.45312 3.72416 3.28308 3.72416 4.30659Z" fill="white" stroke="white" stroke-width="0.0333034" stroke-linecap="round" stroke-linejoin="round"/>
<path d="M2.97537 4.33543C2.97537 4.93071 2.49303 5.41305 1.89775 5.41305C1.30264 5.41305 0.820312 4.93071 0.820312 4.33543C0.820312 3.74015 1.30264 3.25781 1.89775 3.25781C2.49303 3.25781 2.97537 3.74015 2.97537 4.33543Z" fill="white" stroke="black" stroke-width="0.286311" stroke-linecap="round" stroke-linejoin="round"/>
<path d="M12.6187 1.86909C12.6187 2.89261 11.7889 3.72256 10.7654 3.72256C9.74189 3.72256 8.91211 2.89261 8.91211 1.86909C8.91211 0.845576 9.74189 0.015625 10.7654 0.015625C11.7889 0.015625 12.6187 0.845576 12.6187 1.86909Z" fill="white" stroke="white" stroke-width="0.0333034" stroke-linecap="round" stroke-linejoin="round"/>
<path d="M11.866 1.91373C11.866 2.50883 11.3837 2.99135 10.7884 2.99135C10.1933 2.99135 9.71094 2.50883 9.71094 1.91373C9.71094 1.31845 10.1933 0.835938 10.7884 0.835938C11.3835 0.835938 11.866 1.31845 11.866 1.91373Z" fill="white" stroke="black" stroke-width="0.286311" stroke-linecap="round" stroke-linejoin="round"/>
<path d="M20.7547 4.33543C20.7547 4.93071 20.2723 5.41305 19.677 5.41305C19.0819 5.41305 18.5996 4.93071 18.5996 4.33543C18.5996 3.74015 19.0819 3.25781 19.677 3.25781C20.2723 3.25781 20.7547 3.74015 20.7547 4.33543Z" fill="white" stroke="black" stroke-width="0.286311" stroke-linecap="round" stroke-linejoin="round"/>
<path d="M8.04821 2.44722C8.04821 3.47074 7.21843 4.30069 6.19491 4.30069C5.17157 4.30069 4.3418 3.47074 4.3418 2.44722C4.3418 1.4237 5.17157 0.59375 6.19491 0.59375C7.21843 0.59375 8.04821 1.4237 8.04821 2.44722Z" fill="white" stroke="white" stroke-width="0.0333034" stroke-linecap="round" stroke-linejoin="round"/>
<path d="M7.28609 2.45262C7.28609 3.0479 6.80376 3.53024 6.20848 3.53024C5.61337 3.53024 5.13086 3.0479 5.13086 2.45262C5.13086 1.85734 5.61337 1.375 6.20848 1.375C6.80376 1.375 7.28609 1.85751 7.28609 2.45262Z" fill="white" stroke="black" stroke-width="0.286311" stroke-linecap="round" stroke-linejoin="round"/>
<path d="M17.2318 2.71284C17.2318 3.73636 16.402 4.56614 15.3785 4.56614C14.3552 4.56614 13.5254 3.73636 13.5254 2.71284C13.5254 1.68915 14.3552 0.859375 15.3785 0.859375C16.4022 0.859375 17.2318 1.68915 17.2318 2.71284Z" fill="white" stroke="white" stroke-width="0.0333034" stroke-linecap="round" stroke-linejoin="round"/>
<path d="M16.4441 2.72604C16.4441 3.32132 15.9618 3.80385 15.3665 3.80385C14.7714 3.80385 14.2891 3.32132 14.2891 2.72604C14.2891 2.13093 14.7714 1.64844 15.3665 1.64844C15.9618 1.64861 16.4441 2.13111 16.4441 2.72604Z" fill="white" stroke="black" stroke-width="0.286311" stroke-linecap="round" stroke-linejoin="round"/>
<path d="M3.51511 11.8828C8.09451 11.0746 14.8291 11.0746 18.0616 11.8828L19.1391 5.41686L15.3677 11.3439V3.80054L12.4046 11.0746L10.7883 2.99219L9.17213 11.0746L6.2089 3.53108V11.3439L2.4375 5.41686L3.51511 11.8828Z" fill="white" stroke="black" stroke-width="0.878254" stroke-linejoin="round"/>
<path d="M3.51562 11.8796C3.51562 12.9574 4.32379 12.9574 4.86252 14.035C5.40124 14.8433 5.40124 14.5737 5.13179 15.9208C4.32362 16.4595 4.32362 17.2678 4.32362 17.2678C3.51545 18.0762 4.59307 18.6149 4.59307 18.6149C8.09502 19.1536 13.4826 19.1536 16.9845 18.6149C16.9845 18.6149 17.7927 18.0762 16.9845 17.2678C16.9845 17.2678 17.2538 16.4595 16.4458 15.9208C16.1765 14.5737 16.1765 14.8431 16.7153 14.035C17.2538 12.9574 18.0622 12.9574 18.0622 11.8796C13.4828 11.0714 8.09502 11.0714 3.51562 11.8796Z" fill="white" stroke="black" stroke-width="0.878254" stroke-linejoin="round"/>
<path d="M4.86133 14.0369C6.74694 13.4981 14.8285 13.4981 16.7141 14.0369" stroke="black" stroke-width="0.878254" stroke-linecap="round" stroke-linejoin="round"/>
<path d="M5.13086 15.9197C8.36354 15.3809 13.2124 15.3809 16.4449 15.9197" stroke="black" stroke-width="0.878254" stroke-linecap="round" stroke-linejoin="round"/>
<path d="M4.32227 17.2712C7.01605 16.7325 14.2894 16.7325 16.9832 17.2712" stroke="black" stroke-width="0.878254" stroke-linecap="round" stroke-linejoin="round"/>
</svg>
