<svg width="19" height="19" viewBox="0 0 19 19" fill="none" xmlns="http://www.w3.org/2000/svg">
<path d="M8.92805 1.71875C15.5204 2.44963 18.5258 6.31185 18.2388 18.3689H4.90951C4.75266 11.8842 10.3053 14.6055 9.15711 6.28057" fill="black"/>
<path d="M10.7089 6.44481C10.9497 8.15038 7.79574 10.762 6.26301 11.7179C4.38407 12.8896 4.49737 14.2621 3.13151 14.0614C2.408 13.1246 3.20774 13.0245 2.50531 13.4756C1.87911 13.4756 -0.00193067 14.0614 1.48739e-06 11.1319C1.48739e-06 9.96011 3.31875 4.10127 3.31875 4.10127C3.31875 4.10127 4.24882 2.98695 4.32048 2.05073C3.86572 1.46827 4.13289 0.878952 4.13289 0.29298C4.75909 -0.292816 6.35681 1.75773 6.35681 1.75773H7.10754C7.10754 1.75773 7.75393 0.590538 8.83015 0C9.45634 0 9.45634 1.75773 9.45634 1.75773" fill="black"/>
<path d="M1.75176 10.6231C1.75176 10.7816 1.62318 10.9101 1.46474 10.9101C1.30613 10.9101 1.17773 10.7817 1.17773 10.6231C1.17773 10.4645 1.30613 10.3359 1.46474 10.3359C1.62318 10.3361 1.75176 10.4647 1.75176 10.6231Z" fill="#F2F2F2"/>
<path d="M4.8708 5.02014C4.63297 5.43222 4.32909 5.70186 4.19173 5.62264C4.05437 5.54342 4.13588 5.14504 4.37371 4.73332C4.61154 4.32142 4.91541 4.05178 5.05277 4.131C5.19013 4.21022 5.10863 4.60824 4.8708 5.02014Z" fill="#F2F2F2"/>
<path d="M10.3928 1.95312L10.2207 2.58458L10.5365 2.64203C12.3169 2.91604 14.1667 3.9248 15.4591 6.37039C16.7516 8.81597 17.1368 12.6648 16.8513 18.3737L16.8225 18.3784H17.8273V18.3737C18.116 12.5995 17.3242 8.69742 15.9615 6.11922C14.599 3.54101 12.6382 2.31058 10.6872 2.0104L10.3928 1.95312Z" fill="black"/>
<path d="M9.12296 2.23438C14.78 2.7731 18.0125 6.54485 17.7432 17.8601H5.35156C5.35156 13.0109 10.7393 14.358 9.66169 6.54485" fill="white"/>
<path d="M9.12296 2.23438C14.78 2.7731 18.0125 6.54485 17.7432 17.8601H5.35156C5.35156 13.0109 10.7393 14.358 9.66169 6.54485" stroke="black" stroke-width="0.175651" stroke-linecap="round"/>
<path d="M10.1996 6.54401C10.4067 8.11275 7.20795 10.5144 5.88952 11.3934C4.27318 12.471 4.37067 13.7334 3.19574 13.5488C2.63453 13.0401 3.95718 11.9121 3.19574 11.9323C2.65702 11.9323 3.29656 12.5959 2.65701 13.0101C2.11829 13.0101 0.500198 13.5488 0.501955 10.8547C0.501955 9.77704 3.73446 4.38877 3.73446 4.38877C3.73446 4.38877 4.7506 3.36386 4.81208 2.50299C4.4209 1.96708 4.54263 1.4252 4.54263 0.886475C5.08135 0.347753 6.15897 2.23353 6.15897 2.23353H7.23641C7.23641 2.23353 7.65762 1.1603 8.5833 0.617188C9.12202 0.617188 9.12202 2.23353 9.12202 2.23353" fill="white"/>
<path d="M10.1996 6.54401C10.4067 8.11275 7.20795 10.5144 5.88952 11.3934C4.27318 12.471 4.37067 13.7334 3.19574 13.5488C2.63453 13.0401 3.95718 11.9121 3.19574 11.9323C2.65702 11.9323 3.29656 12.5959 2.65701 13.0101C2.11829 13.0101 0.500198 13.5488 0.501955 10.8547C0.501955 9.77704 3.73446 4.38877 3.73446 4.38877C3.73446 4.38877 4.7506 3.36386 4.81208 2.50299C4.4209 1.96708 4.54263 1.4252 4.54263 0.886475C5.08135 0.347753 6.15897 2.23353 6.15897 2.23353H7.23641C7.23641 2.23353 7.65762 1.1603 8.5833 0.617188C9.12202 0.617188 9.12202 2.23353 9.12202 2.23353" stroke="black" stroke-width="0.175651" stroke-linecap="round" stroke-linejoin="round"/>
<path d="M2.38851 10.5818C2.38851 10.7307 2.26783 10.8512 2.11906 10.8512C1.97028 10.8512 1.84961 10.7305 1.84961 10.5818C1.84961 10.433 1.97028 10.3125 2.11906 10.3125C2.26783 10.3123 2.38851 10.433 2.38851 10.5818Z" fill="black" stroke="black" stroke-width="0.0572622" stroke-linecap="round" stroke-linejoin="round"/>
<path d="M5.31521 5.33207C5.09196 5.71851 4.80653 5.97178 4.67778 5.8973C4.54902 5.82282 4.62543 5.44922 4.84851 5.06262C5.07176 4.67618 5.35719 4.42289 5.48594 4.49737C5.6147 4.57184 5.53847 4.94547 5.31521 5.33207Z" fill="black" stroke="black" stroke-width="0.0572622" stroke-linecap="round" stroke-linejoin="round"/>
<path d="M10.3335 2.44531L10.1719 3.03794L10.4684 3.09187C12.1393 3.34902 13.8753 4.29579 15.0882 6.59084C16.3012 8.8859 16.8257 12.3287 16.5578 17.6862L16.531 17.9554H17.4737V17.6862C17.7445 12.2672 16.8384 8.7747 15.5598 6.35511C14.2811 3.93552 12.4408 2.78081 10.6098 2.49924L10.3335 2.44531Z" fill="black"/>
</svg>
