<svg width="188" height="137" viewBox="0 0 188 137" fill="none" xmlns="http://www.w3.org/2000/svg">
<path d="M20.692 94.3371C20.412 95.9611 19.8427 97.4265 18.984 98.7331C18.144 100.04 17.0707 101.104 15.764 101.925L18.676 106.657H12.124L10.556 103.493C10.4067 103.512 10.164 103.521 9.828 103.521C7.924 103.521 6.29067 103.166 4.928 102.457C3.584 101.729 2.55733 100.721 1.848 99.4331C1.13867 98.1265 0.784 96.6051 0.784 94.8691C0.784 93.9731 0.858667 93.1425 1.008 92.3771C1.32533 90.5665 1.97867 88.9705 2.968 87.5891C3.95733 86.2078 5.21733 85.1345 6.748 84.3691C8.29733 83.5851 10.024 83.1931 11.928 83.1931C13.776 83.1931 15.372 83.5571 16.716 84.2851C18.0787 85.0131 19.1147 86.0398 19.824 87.3651C20.552 88.6718 20.916 90.1931 20.916 91.9291C20.916 92.6385 20.8413 93.4411 20.692 94.3371ZM6.356 93.1051C6.28133 93.4971 6.244 93.9265 6.244 94.3931C6.244 95.6438 6.58 96.6238 7.252 97.3331C7.94267 98.0425 8.932 98.3971 10.22 98.3971C11.5453 98.3971 12.6653 97.9585 13.58 97.0811C14.5133 96.2038 15.1013 95.0371 15.344 93.5811C15.4373 93.0585 15.484 92.6105 15.484 92.2371C15.484 91.0051 15.1387 90.0438 14.448 89.3531C13.7573 88.6438 12.7773 88.2891 11.508 88.2891C10.164 88.2891 9.03467 88.7278 8.12 89.6051C7.20533 90.4638 6.61733 91.6305 6.356 93.1051ZM30.3629 83.5011L28.3749 94.8131C28.3003 95.3358 28.2629 95.6905 28.2629 95.8771C28.2629 96.6611 28.4683 97.2678 28.8789 97.6971C29.2896 98.1078 29.9149 98.3131 30.7549 98.3131C31.7629 98.3131 32.5749 98.0051 33.1909 97.3891C33.8069 96.7731 34.2176 95.9145 34.4229 94.8131L36.4109 83.5011H41.8989L39.9109 94.8131C39.5749 96.6798 38.9123 98.2665 37.9229 99.5731C36.9336 100.88 35.7296 101.869 34.3109 102.541C32.8923 103.194 31.3616 103.521 29.7189 103.521C27.5536 103.521 25.8363 102.961 24.5669 101.841C23.3163 100.702 22.6909 99.0691 22.6909 96.9411C22.6909 96.2318 22.7563 95.5225 22.8869 94.8131L24.8749 83.5011H30.3629ZM50.2992 83.5011L46.8272 103.325H41.3112L44.7832 83.5011H50.2992ZM62.5258 83.3051C64.2244 83.3051 65.6804 83.6225 66.8938 84.2571C68.1258 84.8731 69.0591 85.7598 69.6938 86.9171C70.3471 88.0558 70.6924 89.3811 70.7298 90.8931H64.9058C64.7191 90.1091 64.3271 89.5025 63.7298 89.0731C63.1511 88.6251 62.4231 88.4011 61.5458 88.4011C60.3324 88.4011 59.2778 88.8585 58.3818 89.7731C57.4858 90.6691 56.8978 91.8731 56.6178 93.3851C56.5431 93.7771 56.5058 94.2065 56.5058 94.6731C56.5058 95.8305 56.7951 96.7451 57.3738 97.4171C57.9524 98.0705 58.7551 98.3971 59.7818 98.3971C60.6591 98.3971 61.4711 98.1731 62.2178 97.7251C62.9644 97.2771 63.5804 96.6611 64.0658 95.8771H69.8618C68.9844 98.1918 67.5844 100.04 65.6618 101.421C63.7578 102.784 61.5364 103.465 58.9978 103.465C57.2991 103.465 55.8338 103.138 54.6018 102.485C53.3698 101.832 52.4364 100.917 51.8018 99.7411C51.1671 98.5465 50.8498 97.1651 50.8498 95.5971C50.8498 94.8505 50.9151 94.1131 51.0458 93.3851C51.3818 91.4251 52.0818 89.6798 53.1458 88.1491C54.2098 86.6185 55.5444 85.4331 57.1498 84.5931C58.7738 83.7345 60.5658 83.3051 62.5258 83.3051ZM83.5505 93.1891L89.4025 103.325H82.7665L78.0625 94.5611L76.5225 103.325H71.0065L74.4785 83.5011H79.9945L78.4825 92.0971L86.2945 83.5011H92.8745L83.5505 93.1891ZM109.037 83.3051C110.736 83.3051 112.192 83.6225 113.405 84.2571C114.637 84.8731 115.571 85.7598 116.205 86.9171C116.859 88.0558 117.204 89.3811 117.241 90.8931H111.417C111.231 90.1091 110.839 89.5025 110.241 89.0731C109.663 88.6251 108.935 88.4011 108.057 88.4011C106.844 88.4011 105.789 88.8585 104.893 89.7731C103.997 90.6691 103.409 91.8731 103.129 93.3851C103.055 93.7771 103.017 94.2065 103.017 94.6731C103.017 95.8305 103.307 96.7451 103.885 97.4171C104.464 98.0705 105.267 98.3971 106.293 98.3971C107.171 98.3971 107.983 98.1731 108.729 97.7251C109.476 97.2771 110.092 96.6611 110.577 95.8771H116.373C115.496 98.1918 114.096 100.04 112.173 101.421C110.269 102.784 108.048 103.465 105.509 103.465C103.811 103.465 102.345 103.138 101.113 102.485C99.8815 101.832 98.9481 100.917 98.3135 99.7411C97.6788 98.5465 97.3615 97.1651 97.3615 95.5971C97.3615 94.8505 97.4268 94.1131 97.5575 93.3851C97.8935 91.4251 98.5935 89.6798 99.6575 88.1491C100.721 86.6185 102.056 85.4331 103.661 84.5931C105.285 83.7345 107.077 83.3051 109.037 83.3051ZM138.714 83.5011L135.242 103.325H129.754L131.154 95.3171H124.434L123.034 103.325H117.518L120.99 83.5011H126.506L125.218 90.9211H131.938L133.226 83.5011H138.714ZM146.531 87.8971L145.943 91.1731H152.383L151.627 95.3451H145.215L144.599 98.9291H151.851L151.067 103.325H138.299L141.771 83.5011H154.539L153.783 87.8971H146.531ZM169.293 98.3691C169.125 99.3211 168.705 100.189 168.033 100.973C167.379 101.757 166.493 102.382 165.373 102.849C164.271 103.297 163.011 103.521 161.593 103.521C159.241 103.521 157.402 102.961 156.077 101.841C154.77 100.702 154.107 99.1438 154.089 97.1651H159.941C159.866 97.8745 159.987 98.3971 160.305 98.7331C160.641 99.0505 161.098 99.2091 161.677 99.2091C162.143 99.2091 162.526 99.0878 162.825 98.8451C163.142 98.6025 163.338 98.2665 163.413 97.8371C163.431 97.7625 163.441 97.6598 163.441 97.5291C163.441 96.9691 163.198 96.5305 162.713 96.2131C162.246 95.8771 161.471 95.4758 160.389 95.0091C159.343 94.5798 158.475 94.1691 157.785 93.7771C157.113 93.3665 156.534 92.8065 156.049 92.0971C155.563 91.3878 155.321 90.5011 155.321 89.4371C155.321 89.0638 155.367 88.5971 155.461 88.0371C155.741 86.5251 156.581 85.3398 157.981 84.4811C159.399 83.6225 161.079 83.1931 163.021 83.1931C165.466 83.1931 167.295 83.7345 168.509 84.8171C169.722 85.8998 170.357 87.4025 170.413 89.3251H164.505C164.542 88.7091 164.421 88.2518 164.141 87.9531C163.879 87.6545 163.497 87.5051 162.993 87.5051C162.526 87.5051 162.143 87.6358 161.845 87.8971C161.546 88.1585 161.397 88.5505 161.397 89.0731C161.397 89.5771 161.621 89.9878 162.069 90.3051C162.535 90.6225 163.282 90.9865 164.309 91.3971C165.373 91.8265 166.241 92.2371 166.913 92.6291C167.603 93.0211 168.191 93.5718 168.677 94.2811C169.181 94.9905 169.433 95.8865 169.433 96.9691C169.433 97.3425 169.386 97.8091 169.293 98.3691ZM186.382 98.3691C186.214 99.3211 185.794 100.189 185.122 100.973C184.469 101.757 183.582 102.382 182.462 102.849C181.361 103.297 180.101 103.521 178.682 103.521C176.33 103.521 174.492 102.961 173.166 101.841C171.86 100.702 171.197 99.1438 171.178 97.1651H177.03C176.956 97.8745 177.077 98.3971 177.394 98.7331C177.73 99.0505 178.188 99.2091 178.766 99.2091C179.233 99.2091 179.616 99.0878 179.914 98.8451C180.232 98.6025 180.428 98.2665 180.502 97.8371C180.521 97.7625 180.53 97.6598 180.53 97.5291C180.53 96.9691 180.288 96.5305 179.802 96.2131C179.336 95.8771 178.561 95.4758 177.478 95.0091C176.433 94.5798 175.565 94.1691 174.874 93.7771C174.202 93.3665 173.624 92.8065 173.138 92.0971C172.653 91.3878 172.41 90.5011 172.41 89.4371C172.41 89.0638 172.457 88.5971 172.55 88.0371C172.83 86.5251 173.67 85.3398 175.07 84.4811C176.489 83.6225 178.169 83.1931 180.11 83.1931C182.556 83.1931 184.385 83.7345 185.598 84.8171C186.812 85.8998 187.446 87.4025 187.502 89.3251H181.594C181.632 88.7091 181.51 88.2518 181.23 87.9531C180.969 87.6545 180.586 87.5051 180.082 87.5051C179.616 87.5051 179.233 87.6358 178.934 87.8971C178.636 88.1585 178.486 88.5505 178.486 89.0731C178.486 89.5771 178.71 89.9878 179.158 90.3051C179.625 90.6225 180.372 90.9865 181.398 91.3971C182.462 91.8265 183.33 92.2371 184.002 92.6291C184.693 93.0211 185.281 93.5718 185.766 94.2811C186.27 94.9905 186.522 95.8865 186.522 96.9691C186.522 97.3425 186.476 97.8091 186.382 98.3691Z" fill="#B58863"/>
<path d="M58.804 111.771L58.276 114.763H51.896L51.302 118.173H56.23L55.724 121.033H50.818L49.696 127.325H45.934L48.662 111.771H58.804ZM67.5562 111.529C68.9789 111.529 70.2109 111.815 71.2522 112.387C72.2936 112.944 73.0929 113.736 73.6502 114.763C74.2076 115.775 74.4862 116.948 74.4862 118.283C74.4862 118.855 74.4276 119.478 74.3102 120.153C74.0609 121.59 73.5402 122.866 72.7482 123.981C71.9709 125.081 70.9736 125.939 69.7562 126.555C68.5536 127.171 67.2116 127.479 65.7302 127.479C64.2782 127.479 63.0242 127.2 61.9682 126.643C60.9269 126.086 60.1276 125.301 59.5702 124.289C59.0276 123.277 58.7562 122.096 58.7562 120.747C58.7562 120.175 58.8149 119.537 58.9322 118.833C59.1816 117.41 59.7022 116.149 60.4942 115.049C61.2862 113.934 62.2836 113.069 63.4862 112.453C64.7036 111.837 66.0602 111.529 67.5562 111.529ZM67.2702 115.027C66.0822 115.027 65.0629 115.416 64.2122 116.193C63.3762 116.956 62.8409 118.004 62.6062 119.339C62.5329 119.779 62.4962 120.146 62.4962 120.439C62.4962 121.539 62.8042 122.404 63.4202 123.035C64.0362 123.651 64.9016 123.959 66.0162 123.959C67.1896 123.959 68.1942 123.57 69.0302 122.793C69.8809 122.016 70.4236 120.974 70.6582 119.669C70.7169 119.317 70.7462 118.943 70.7462 118.547C70.7462 117.447 70.4382 116.589 69.8222 115.973C69.2209 115.342 68.3702 115.027 67.2702 115.027ZM84.2618 111.771C85.8751 111.771 87.0924 112.13 87.9138 112.849C88.7498 113.568 89.1678 114.521 89.1678 115.709C89.1678 116.076 89.1384 116.406 89.0798 116.699C88.8744 117.828 88.3904 118.789 87.6278 119.581C86.8651 120.373 85.8678 120.916 84.6358 121.209L87.2538 127.325H83.0958L80.7638 121.451H79.9058L78.8718 127.325H75.1098L77.8378 111.771H84.2618ZM85.2078 116.919C85.2371 116.714 85.2518 116.56 85.2518 116.457C85.2518 115.445 84.6284 114.939 83.3818 114.939H81.0718L80.3458 118.877H82.6778C84.1444 118.877 84.9878 118.224 85.2078 116.919ZM109.67 111.771L102.432 122.155L101.552 127.325H97.7684L98.6704 122.155L95.1064 111.771H99.4184L101.31 118.107L105.402 111.771H109.67ZM117.937 111.529C119.36 111.529 120.592 111.815 121.633 112.387C122.674 112.944 123.474 113.736 124.031 114.763C124.588 115.775 124.867 116.948 124.867 118.283C124.867 118.855 124.808 119.478 124.691 120.153C124.442 121.59 123.921 122.866 123.129 123.981C122.352 125.081 121.354 125.939 120.137 126.555C118.934 127.171 117.592 127.479 116.111 127.479C114.659 127.479 113.405 127.2 112.349 126.643C111.308 126.086 110.508 125.301 109.951 124.289C109.408 123.277 109.137 122.096 109.137 120.747C109.137 120.175 109.196 119.537 109.313 118.833C109.562 117.41 110.083 116.149 110.875 115.049C111.667 113.934 112.664 113.069 113.867 112.453C115.084 111.837 116.441 111.529 117.937 111.529ZM117.651 115.027C116.463 115.027 115.444 115.416 114.593 116.193C113.757 116.956 113.222 118.004 112.987 119.339C112.914 119.779 112.877 120.146 112.877 120.439C112.877 121.539 113.185 122.404 113.801 123.035C114.417 123.651 115.282 123.959 116.397 123.959C117.57 123.959 118.575 123.57 119.411 122.793C120.262 122.016 120.804 120.974 121.039 119.669C121.098 119.317 121.127 118.943 121.127 118.547C121.127 117.447 120.819 116.589 120.203 115.973C119.602 115.342 118.751 115.027 117.651 115.027ZM131.893 111.771L130.331 120.747C130.272 121.055 130.243 121.385 130.243 121.737C130.243 122.441 130.426 122.984 130.793 123.365C131.159 123.732 131.709 123.915 132.443 123.915C133.337 123.915 134.063 123.644 134.621 123.101C135.178 122.558 135.552 121.774 135.743 120.747L137.305 111.771H141.067L139.483 120.747C139.233 122.214 138.735 123.453 137.987 124.465C137.239 125.462 136.322 126.218 135.237 126.731C134.151 127.23 132.985 127.479 131.739 127.479C130.111 127.479 128.813 127.054 127.845 126.203C126.891 125.352 126.415 124.106 126.415 122.463C126.415 121.891 126.466 121.319 126.569 120.747L128.153 111.771H131.893Z" fill="#B58863"/>
<path d="M33.5 56.8251C32.7 58.0251 29.5 61.3251 28 62.8251H66.5C64.9 62.0251 62.5 58.4918 61.5 56.8251H33.5Z" fill="#B58863"/>
<rect x="32" y="51.3251" width="31" height="4" rx="2" fill="#B58863"/>
<rect x="28" y="64.3251" width="39" height="4" rx="1" fill="#B58863"/>
<path d="M43.0004 0.325636C46.5004 -1.1742 52.5004 2.82567 53.0004 5.82564C53.0004 3.02681 52.3338 1.6597 52.0004 1.32564C54.3339 2.32587 59.1004 5.52597 59.5004 10.3256C60.3001 7.92651 60.1669 6.32625 60.0004 5.82564C62.0004 6.99265 65.5002 10.9261 63.5004 17.3256C65.9 16.1257 66.1669 12.8259 66.0004 11.3256C67.6669 13.6596 69.5 21.3259 64.5004 24.8256C67.6999 24.8254 69.1669 21.159 69.5004 19.3256C70.6668 21.9928 70.4998 29.8258 63.5004 33.3256C67.4999 32.9255 69.8335 29.8257 70.5004 28.3256C70.8333 31.4926 67.9997 39.3257 60.0004 41.3256C64.0002 41.7254 67.667 39.4923 69.0004 38.3256C67.6669 41.3258 64.4003 47.8257 62.0004 49.8256H34.0004C34.0004 38.8257 44.0004 35.3255 51.0004 24.3256C46.5004 29.3255 40.9003 23.0257 36.5004 31.8256C36.0002 32.8255 34.4 34.0248 32.0004 30.8256C31.0001 32.3252 26.5007 28.8254 29.5004 24.3256C32.5003 19.8257 38.0002 17.8254 39.5004 13.8256C40.7004 10.6256 43.3337 9.15897 44.5004 8.82564C43.6673 8.82564 41.9012 8.72529 41.5004 8.32564C44.9998 6.8257 44.5 0.826726 43.0004 0.325636ZM54.5004 15.3256C57.0001 30.3254 48.167 41.159 43.0004 45.8256C49.5003 40.8257 58.9999 29.8254 54.5004 15.3256ZM33.0004 24.8256C31.8004 24.4256 30.8337 25.3256 30.5004 25.8256C31.1672 25.9922 32.6003 26.025 33.0004 24.8256ZM44.5004 15.8256C44.9003 15.0257 44.3337 15.159 44.0004 15.3256L41.5004 16.8256C41.1007 17.6254 42.0004 17.4923 42.5004 17.3256C43.0004 17.1589 44.1003 16.6254 44.5004 15.8256Z" fill="#B58863"/>
<path d="M77 9.85905C77 9.26342 77.4328 8.75607 78.021 8.66221L123.421 1.41754C123.725 1.36905 124 1.60383 124 1.91157C124 2.15158 123.83 2.35777 123.594 2.40291L78.4399 11.0494C77.6927 11.1925 77 10.6198 77 9.85905Z" fill="#B58863"/>
<path d="M84 72.3713C84 71.7696 84.4394 71.2581 85.0342 71.1674L142.425 62.4128C142.728 62.3667 143 62.6007 143 62.9066C143 63.1488 142.826 63.356 142.588 63.3985L85.4313 73.5704C84.685 73.7032 84 73.1294 84 72.3713Z" fill="#B58863"/>
<path d="M77 15.8228C77 15.2471 77.4162 14.7558 77.9841 14.6611L100.644 10.8844C100.831 10.8534 101 10.9969 101 11.1857C101 11.3263 100.904 11.4487 100.767 11.4823L78.4589 16.9665C77.7167 17.1489 77 16.5871 77 15.8228Z" fill="#B58863"/>
<path d="M77 64.8228C77 64.2471 77.4162 63.7558 77.9841 63.6611L100.644 59.8844C100.831 59.8534 101 59.9969 101 60.1857C101 60.3263 100.904 60.4487 100.767 60.4823L78.4589 65.9665C77.7167 66.1489 77 65.5871 77 64.8228Z" fill="#B58863"/>
<path d="M77 21.6236C77 21.1618 77.3315 20.7666 77.7863 20.6864L93.4084 17.9295C93.717 17.8751 94 18.1125 94 18.4259C94 18.6598 93.8391 18.863 93.6114 18.9166L78.1696 22.5499C77.5723 22.6905 77 22.2372 77 21.6236Z" fill="#B58863"/>
<path d="M77 58.6236C77 58.1618 77.3315 57.7666 77.7863 57.6864L93.4084 54.9295C93.717 54.8751 94 55.1125 94 55.4259C94 55.6598 93.8391 55.863 93.6114 55.9166L78.1696 59.5499C77.5723 59.6905 77 59.2372 77 58.6236Z" fill="#B58863"/>
<path d="M77 27.6213C77 27.1619 77.3322 26.7698 77.7854 26.6942L88.4063 24.9241C88.7171 24.8723 89 25.112 89 25.427C89 25.661 88.8408 25.8649 88.6138 25.9217L78.1678 28.5332C77.5746 28.6815 77 28.2328 77 27.6213Z" fill="#B58863"/>
<path d="M77 33.8452C77 33.2624 77.4339 32.7709 78.0122 32.6986L88.4126 31.3986C88.7245 31.3596 89 31.6028 89 31.9171C89 32.1569 88.8368 32.3659 88.6042 32.4241L78.4358 34.9662C77.7065 35.1485 77 34.5969 77 33.8452Z" fill="#B58863"/>
<path d="M134 9.34519C134 8.76244 134.434 8.27089 135.012 8.19861L145.413 6.89856C145.725 6.85957 146 7.10278 146 7.41711C146 7.65691 145.837 7.86593 145.604 7.92409L135.436 10.4662C134.706 10.6485 134 10.0969 134 9.34519Z" fill="#B58863"/>
<path d="M141 15.3452C141 14.7624 141.434 14.2709 142.012 14.1986L152.413 12.8986C152.725 12.8596 153 13.1028 153 13.4171C153 13.6569 152.837 13.8659 152.604 13.9241L142.436 16.4662C141.706 16.6485 141 16.0969 141 15.3452Z" fill="#B58863"/>
<path d="M146 22.3452C146 21.7624 146.434 21.2709 147.012 21.1986L157.413 19.8986C157.725 19.8596 158 20.1028 158 20.4171C158 20.6569 157.837 20.8659 157.604 20.9241L147.436 23.4662C146.706 23.6485 146 23.0969 146 22.3452Z" fill="#B58863"/>
<path d="M148 30.3452C148 29.7624 148.434 29.2709 149.012 29.1986L159.413 27.8986C159.725 27.8596 160 28.1028 160 28.4171C160 28.6569 159.837 28.8659 159.604 28.9241L149.436 31.4662C148.706 31.6485 148 31.0969 148 30.3452Z" fill="#B58863"/>
<path d="M148 38.3014C148 37.7403 148.411 37.2636 148.966 37.1803L157.397 35.9155C157.715 35.8679 158 36.1137 158 36.4346C158 36.6664 157.848 36.8707 157.626 36.9374L149.459 39.3873C148.732 39.6055 148 39.0608 148 38.3014Z" fill="#B58863"/>
<path d="M147 46.2729C147 45.726 147.395 45.2592 147.935 45.1693L155.388 43.9272C155.708 43.8738 156 44.121 156 44.446C156 44.6724 155.855 44.8734 155.64 44.945L148.473 47.3343C147.748 47.5758 147 47.0365 147 46.2729Z" fill="#B58863"/>
<path d="M77 40.3452C77 39.7624 77.4339 39.2709 78.0122 39.1986L88.4126 37.8986C88.7245 37.8596 89 38.1028 89 38.4171C89 38.6569 88.8368 38.8659 88.6042 38.9241L78.4358 41.4662C77.7065 41.6485 77 41.0969 77 40.3452Z" fill="#B58863"/>
<path d="M77 46.3452C77 45.7624 77.4339 45.2709 78.0122 45.1986L88.4126 43.8986C88.7245 43.8596 89 44.1028 89 44.4171C89 44.6569 88.8368 44.8659 88.6042 44.9241L78.4358 47.4662C77.7065 47.6485 77 47.0969 77 46.3452Z" fill="#B58863"/>
<path d="M77 52.3233C77 51.7506 77.4212 51.265 77.9882 51.184L89.8043 49.496C90.3202 49.4222 90.4944 50.1603 90 50.3251L78.4502 53.4347C77.7189 53.6316 77 53.0807 77 52.3233Z" fill="#B58863"/>
<path d="M147 35.8251C147 51.2891 134.464 63.8251 119 63.8251C103.536 63.8251 91 51.2891 91 35.8251C91 20.3612 103.536 7.82513 119 7.82513C134.464 7.82513 147 20.3612 147 35.8251ZM92.963 35.8251C92.963 50.205 104.62 61.8622 119 61.8622C133.38 61.8622 145.037 50.205 145.037 35.8251C145.037 21.4453 133.38 9.78812 119 9.78812C104.62 9.78812 92.963 21.4453 92.963 35.8251Z" fill="#B58863"/>
<path d="M133.652 25.5938C133.821 25.4872 134.044 25.533 134.157 25.6973C134.267 25.8572 134.236 26.0748 134.086 26.1973L121.908 36.1026C121.965 36.3343 122 36.5758 122 36.8253C122 38.482 120.657 39.8253 119 39.8253C117.343 39.8252 116 38.482 116 36.8253C116 36.5449 116.041 36.2741 116.113 36.0167L106.78 28.2295C106.631 28.1051 106.602 27.8883 106.712 27.7286C106.826 27.5632 107.049 27.5168 107.22 27.6231L117.667 34.1397C118.069 33.9398 118.521 33.8253 119 33.8253C119.436 33.8253 119.85 33.9203 120.224 34.0879L133.652 25.5938Z" fill="#B58863"/>
<rect x="106" y="15.806" width="2" height="5" rx="1" transform="rotate(-29.3683 106 15.806)" fill="#B58863"/>
<rect width="2" height="5" rx="1" transform="matrix(0.871485 0.490422 0.490422 -0.871485 106 55.1826)" fill="#B58863"/>
<rect x="118.297" y="11.9283" width="2" height="5" rx="1" fill="#B58863"/>
<rect x="118.297" y="53.8251" width="2" height="5" rx="1" fill="#B58863"/>
<rect x="95" y="36.3251" width="2" height="5" rx="1" transform="rotate(-90 95 36.3251)" fill="#B58863"/>
<rect x="138" y="36.3251" width="2" height="5" rx="1" transform="rotate(-90 138 36.3251)" fill="#B58863"/>
<rect x="130.174" y="14.8251" width="2" height="5" rx="1" transform="rotate(39.4064 130.174 14.8251)" fill="#B58863"/>
<rect width="2" height="5" rx="1" transform="matrix(0.772663 -0.634817 -0.634817 -0.772663 130.174 56.1634)" fill="#B58863"/>
<rect x="139.288" y="22.6224" width="2" height="5" rx="1" transform="rotate(58.2572 139.288 22.6224)" fill="#B58863"/>
<rect width="2" height="5" rx="1" transform="matrix(0.526107 -0.850419 -0.850419 -0.526107 139.288 48.1565)" fill="#B58863"/>
<rect width="2" height="5" rx="1" transform="matrix(-0.526107 0.850419 0.850419 0.526107 99.0522 22.6224)" fill="#B58863"/>
<rect x="99.0522" y="48.1565" width="2" height="5" rx="1" transform="rotate(-121.743 99.0522 48.1565)" fill="#B58863"/>
<rect x="8" y="119.325" width="32" height="2" rx="1" fill="#B58863"/>
<rect x="147" y="119.325" width="32" height="2" rx="1" fill="#B58863"/>
</svg>
